<mxfile host="Electron" modified="2024-07-15T09:51:48.814Z" agent="Mozilla/5.0 (Macintosh; Intel Mac OS X 10_15_7) AppleWebKit/537.36 (KHTML, like Gecko) draw.io/21.5.0 Chrome/112.0.5615.204 Electron/24.5.1 Safari/537.36" etag="xb_VIiZIEx-f3pZANHj1" version="21.5.0" type="device" pages="10">
  <diagram id="_meZ_cWU2jmSIrhfbiGC" name="orchestrator">
    <mxGraphModel dx="1037" dy="581" grid="1" gridSize="10" guides="1" tooltips="1" connect="1" arrows="1" fold="1" page="1" pageScale="1" pageWidth="850" pageHeight="1100" math="0" shadow="0">
      <root>
        <mxCell id="0" />
        <mxCell id="1" parent="0" />
        <mxCell id="buc3jdtBd3sWUAjqvnt--10" value="" style="rounded=1;whiteSpace=wrap;html=1;strokeColor=none;fillColor=#FFFFFF;opacity=30;arcSize=8;fontFamily=Tahoma;" parent="1" vertex="1">
          <mxGeometry x="120" y="80" width="520" height="240" as="geometry" />
        </mxCell>
        <mxCell id="buc3jdtBd3sWUAjqvnt--6" value="Include" style="edgeStyle=orthogonalEdgeStyle;rounded=0;orthogonalLoop=1;jettySize=auto;html=1;exitX=0.5;exitY=1;exitDx=0;exitDy=0;entryX=0.5;entryY=0;entryDx=0;entryDy=0;fontFamily=Tahoma;labelBackgroundColor=none;" parent="1" source="buc3jdtBd3sWUAjqvnt--1" target="buc3jdtBd3sWUAjqvnt--5" edge="1">
          <mxGeometry x="-0.0769" y="30" relative="1" as="geometry">
            <mxPoint as="offset" />
          </mxGeometry>
        </mxCell>
        <mxCell id="buc3jdtBd3sWUAjqvnt--1" value="Website" style="rounded=0;whiteSpace=wrap;html=1;fillColor=#f5f5f5;fontColor=#333333;strokeColor=#666666;fontFamily=Tahoma;" parent="1" vertex="1">
          <mxGeometry x="160" y="110" width="120" height="60" as="geometry" />
        </mxCell>
        <mxCell id="buc3jdtBd3sWUAjqvnt--8" value="Contains" style="edgeStyle=orthogonalEdgeStyle;rounded=0;orthogonalLoop=1;jettySize=auto;html=1;exitX=0.5;exitY=0;exitDx=0;exitDy=0;fillColor=#d5e8d4;strokeColor=#82b366;fontFamily=Tahoma;labelBackgroundColor=none;fontColor=#97D077;" parent="1" source="buc3jdtBd3sWUAjqvnt--3" target="buc3jdtBd3sWUAjqvnt--4" edge="1">
          <mxGeometry x="-0.0769" y="40" relative="1" as="geometry">
            <mxPoint as="offset" />
          </mxGeometry>
        </mxCell>
        <mxCell id="buc3jdtBd3sWUAjqvnt--3" value="Micro Frontend" style="rounded=0;whiteSpace=wrap;html=1;fillColor=#d5e8d4;strokeColor=#82b366;fontFamily=Tahoma;" parent="1" vertex="1">
          <mxGeometry x="480" y="230" width="120" height="60" as="geometry" />
        </mxCell>
        <mxCell id="buc3jdtBd3sWUAjqvnt--9" value="Render" style="edgeStyle=orthogonalEdgeStyle;rounded=0;orthogonalLoop=1;jettySize=auto;html=1;exitX=0;exitY=0.5;exitDx=0;exitDy=0;entryX=1;entryY=0.5;entryDx=0;entryDy=0;fillColor=#ffe6cc;strokeColor=#d79b00;dashed=1;fontFamily=Tahoma;labelBackgroundColor=none;fontColor=#FF9933;endArrow=none;endFill=0;startArrow=classic;startFill=1;" parent="1" source="buc3jdtBd3sWUAjqvnt--4" target="buc3jdtBd3sWUAjqvnt--1" edge="1">
          <mxGeometry x="-0.0044" y="-19" relative="1" as="geometry">
            <mxPoint y="38" as="offset" />
          </mxGeometry>
        </mxCell>
        <mxCell id="buc3jdtBd3sWUAjqvnt--4" value="Component" style="rounded=1;whiteSpace=wrap;html=1;fillColor=#dae8fc;strokeColor=#6c8ebf;fontFamily=Tahoma;" parent="1" vertex="1">
          <mxGeometry x="500" y="115" width="80" height="50" as="geometry" />
        </mxCell>
        <mxCell id="buc3jdtBd3sWUAjqvnt--7" value="Load" style="edgeStyle=orthogonalEdgeStyle;rounded=0;orthogonalLoop=1;jettySize=auto;html=1;exitX=1;exitY=0.5;exitDx=0;exitDy=0;fillColor=#ffe6cc;strokeColor=#d79b00;fontFamily=Tahoma;labelBackgroundColor=none;fontColor=#FF9933;" parent="1" source="buc3jdtBd3sWUAjqvnt--5" target="buc3jdtBd3sWUAjqvnt--3" edge="1">
          <mxGeometry x="0.0949" y="-19" relative="1" as="geometry">
            <mxPoint as="offset" />
          </mxGeometry>
        </mxCell>
        <mxCell id="buc3jdtBd3sWUAjqvnt--5" value="Picard.js" style="rounded=1;whiteSpace=wrap;html=1;fillColor=#fff2cc;strokeColor=#d6b656;fontStyle=1;fontFamily=Tahoma;" parent="1" vertex="1">
          <mxGeometry x="180" y="235" width="80" height="50" as="geometry" />
        </mxCell>
        <mxCell id="buc3jdtBd3sWUAjqvnt--11" value="&lt;h1&gt;Note&lt;/h1&gt;&lt;p&gt;Always export in 120%.&lt;/p&gt;&lt;p&gt;Transparent background.&lt;/p&gt;&lt;p&gt;SVG.&lt;/p&gt;&lt;p&gt;Do not include the diagram.&lt;/p&gt;" style="text;html=1;strokeColor=none;fillColor=none;spacing=5;spacingTop=-20;whiteSpace=wrap;overflow=hidden;rounded=0;fontFamily=Bahnschrift;fontColor=#FF0000;opacity=30;" parent="1" vertex="1">
          <mxGeometry x="40" y="520" width="230" height="150" as="geometry" />
        </mxCell>
      </root>
    </mxGraphModel>
  </diagram>
  <diagram id="FwYhZEg4Krq66VuVY5wJ" name="interoperability">
    <mxGraphModel dx="2074" dy="1161" grid="1" gridSize="10" guides="1" tooltips="1" connect="1" arrows="1" fold="1" page="1" pageScale="1" pageWidth="1169" pageHeight="1654" math="0" shadow="0">
      <root>
        <mxCell id="0" />
        <mxCell id="1" parent="0" />
        <mxCell id="NRkS2h0ItheFWs6BhOHL-1" value="" style="rounded=1;whiteSpace=wrap;html=1;strokeColor=none;fillColor=#FFFFFF;opacity=30;arcSize=8;fontFamily=Tahoma;" vertex="1" parent="1">
          <mxGeometry x="120" y="80" width="520" height="220" as="geometry" />
        </mxCell>
        <mxCell id="4CfHV8qtqtMX_SaNi6Gb-3" style="edgeStyle=orthogonalEdgeStyle;rounded=0;orthogonalLoop=1;jettySize=auto;html=1;fillColor=#ffe6cc;strokeColor=#d79b00;" edge="1" parent="1" source="4CfHV8qtqtMX_SaNi6Gb-1" target="4CfHV8qtqtMX_SaNi6Gb-2">
          <mxGeometry relative="1" as="geometry" />
        </mxCell>
        <mxCell id="4CfHV8qtqtMX_SaNi6Gb-1" value="Native&lt;br&gt;Federation" style="rounded=0;whiteSpace=wrap;html=1;fillColor=#ffe6cc;strokeColor=#d79b00;fontFamily=Tahoma;fontSize=16;" vertex="1" parent="1">
          <mxGeometry x="160" y="110" width="120" height="60" as="geometry" />
        </mxCell>
        <mxCell id="4CfHV8qtqtMX_SaNi6Gb-2" value="Module&lt;br&gt;Federation" style="rounded=0;whiteSpace=wrap;html=1;fillColor=#d5e8d4;strokeColor=#82b366;fontFamily=Tahoma;fontSize=16;" vertex="1" parent="1">
          <mxGeometry x="480" y="110" width="120" height="60" as="geometry" />
        </mxCell>
        <mxCell id="4CfHV8qtqtMX_SaNi6Gb-4" value="" style="verticalLabelPosition=bottom;verticalAlign=top;html=1;shape=mxgraph.basic.x;fillColor=#e51400;fontColor=#ffffff;strokeColor=none;" vertex="1" parent="1">
          <mxGeometry x="372" y="129" width="20" height="20" as="geometry" />
        </mxCell>
        <mxCell id="flEThvisB6ChSrX0arh8-3" style="edgeStyle=orthogonalEdgeStyle;rounded=0;orthogonalLoop=1;jettySize=auto;html=1;exitX=1;exitY=0.5;exitDx=0;exitDy=0;entryX=0;entryY=0.5;entryDx=0;entryDy=0;startArrow=classic;startFill=1;" edge="1" parent="1" source="flEThvisB6ChSrX0arh8-1" target="flEThvisB6ChSrX0arh8-2">
          <mxGeometry relative="1" as="geometry" />
        </mxCell>
        <mxCell id="flEThvisB6ChSrX0arh8-1" value="Shared&lt;br&gt;Dependency" style="rounded=0;whiteSpace=wrap;html=1;fillColor=#ffe6cc;strokeColor=#d79b00;fontFamily=Tahoma;fontSize=16;" vertex="1" parent="1">
          <mxGeometry x="200" y="200" width="120" height="60" as="geometry" />
        </mxCell>
        <mxCell id="flEThvisB6ChSrX0arh8-2" value="Shared&lt;br&gt;Dependency" style="rounded=0;whiteSpace=wrap;html=1;fillColor=#d5e8d4;strokeColor=#82b366;fontFamily=Tahoma;fontSize=16;" vertex="1" parent="1">
          <mxGeometry x="440" y="200" width="120" height="60" as="geometry" />
        </mxCell>
        <mxCell id="flEThvisB6ChSrX0arh8-4" value="" style="verticalLabelPosition=bottom;verticalAlign=top;html=1;shape=mxgraph.basic.x;fillColor=#e51400;fontColor=#ffffff;strokeColor=none;" vertex="1" parent="1">
          <mxGeometry x="372" y="219" width="20" height="20" as="geometry" />
        </mxCell>
      </root>
    </mxGraphModel>
  </diagram>
  <diagram id="z5cMdhaXX2e2iIY_XOt7" name="error-handling">
    <mxGraphModel dx="2074" dy="1161" grid="1" gridSize="10" guides="1" tooltips="1" connect="1" arrows="1" fold="1" page="1" pageScale="1" pageWidth="1169" pageHeight="1654" math="0" shadow="0">
      <root>
        <mxCell id="0" />
        <mxCell id="1" parent="0" />
        <mxCell id="8hqzuCNhueZulwYtOziJ-1" value="" style="rounded=1;whiteSpace=wrap;html=1;strokeColor=none;fillColor=#FFFFFF;opacity=30;arcSize=8;fontFamily=Tahoma;" vertex="1" parent="1">
          <mxGeometry x="120" y="80" width="520" height="200" as="geometry" />
        </mxCell>
        <mxCell id="2D6hum7MKyN5b9Upe6-x-1" value="" style="rounded=0;whiteSpace=wrap;html=1;strokeColor=none;fillColor=#E6E6E6;" vertex="1" parent="1">
          <mxGeometry x="202" y="145" width="128" height="95" as="geometry" />
        </mxCell>
        <mxCell id="2D6hum7MKyN5b9Upe6-x-2" value="Loading Page" style="swimlane;whiteSpace=wrap;html=1;fillColor=#dae8fc;strokeColor=#6c8ebf;fontFamily=Tahoma;comic=0;" vertex="1" parent="1">
          <mxGeometry x="201" y="121" width="130" height="120" as="geometry" />
        </mxCell>
        <mxCell id="2D6hum7MKyN5b9Upe6-x-3" value="" style="rounded=1;whiteSpace=wrap;html=1;fillColor=#ffe6cc;strokeColor=#d79b00;fontFamily=Tahoma;" vertex="1" parent="2D6hum7MKyN5b9Upe6-x-2">
          <mxGeometry x="10" y="40" width="40" height="20" as="geometry" />
        </mxCell>
        <mxCell id="2D6hum7MKyN5b9Upe6-x-5" value="" style="rounded=1;whiteSpace=wrap;html=1;fillColor=#d5e8d4;strokeColor=#82b366;fontFamily=Tahoma;" vertex="1" parent="1">
          <mxGeometry x="211" y="201" width="40" height="20" as="geometry" />
        </mxCell>
        <mxCell id="iSFwHkW6biipmVr8ax8n-2" style="edgeStyle=orthogonalEdgeStyle;rounded=0;orthogonalLoop=1;jettySize=auto;html=1;fillColor=#fff2cc;strokeColor=#d6b656;" edge="1" parent="1" source="2D6hum7MKyN5b9Upe6-x-6" target="iSFwHkW6biipmVr8ax8n-1">
          <mxGeometry relative="1" as="geometry" />
        </mxCell>
        <mxCell id="2D6hum7MKyN5b9Upe6-x-6" value="" style="rounded=1;whiteSpace=wrap;html=1;fillColor=#fff2cc;strokeColor=#d6b656;fontFamily=Tahoma;" vertex="1" parent="1">
          <mxGeometry x="271" y="161" width="40" height="20" as="geometry" />
        </mxCell>
        <mxCell id="iSFwHkW6biipmVr8ax8n-1" value="MF&lt;br&gt;&lt;font style=&quot;font-size: 12px;&quot;&gt;(broken / gone)&lt;/font&gt;" style="rounded=0;whiteSpace=wrap;html=1;fillColor=#fff2cc;strokeColor=#d6b656;fontFamily=Tahoma;fontSize=16;" vertex="1" parent="1">
          <mxGeometry x="440" y="141" width="120" height="60" as="geometry" />
        </mxCell>
        <mxCell id="iSFwHkW6biipmVr8ax8n-3" value="" style="verticalLabelPosition=bottom;verticalAlign=top;html=1;shape=mxgraph.basic.flash;fillColor=#e51400;fontColor=#ffffff;strokeColor=none;" vertex="1" parent="1">
          <mxGeometry x="370" y="151" width="20" height="40" as="geometry" />
        </mxCell>
      </root>
    </mxGraphModel>
  </diagram>
  <diagram id="qF_yH_f9LS7fO03fPo-3" name="tech-agnostic">
    <mxGraphModel dx="2074" dy="1161" grid="1" gridSize="10" guides="1" tooltips="1" connect="1" arrows="1" fold="1" page="1" pageScale="1" pageWidth="1169" pageHeight="1654" math="0" shadow="0">
      <root>
        <mxCell id="0" />
        <mxCell id="1" parent="0" />
        <mxCell id="YgPP8ybwHyKekFAVjbnY-1" value="" style="rounded=1;whiteSpace=wrap;html=1;strokeColor=none;fillColor=#FFFFFF;opacity=30;arcSize=8;fontFamily=Tahoma;" vertex="1" parent="1">
          <mxGeometry x="120" y="120" width="520" height="160" as="geometry" />
        </mxCell>
        <mxCell id="YgPP8ybwHyKekFAVjbnY-6" style="edgeStyle=orthogonalEdgeStyle;rounded=0;orthogonalLoop=1;jettySize=auto;html=1;fillColor=#f5f5f5;strokeColor=#000000;" edge="1" parent="1" source="YgPP8ybwHyKekFAVjbnY-7" target="YgPP8ybwHyKekFAVjbnY-8">
          <mxGeometry relative="1" as="geometry" />
        </mxCell>
        <mxCell id="YgPP8ybwHyKekFAVjbnY-7" value="PHP" style="rounded=0;whiteSpace=wrap;html=1;fillColor=#f5f5f5;strokeColor=#666666;fontFamily=Tahoma;fontSize=16;fontColor=#333333;" vertex="1" parent="1">
          <mxGeometry x="160" y="160" width="120" height="60" as="geometry" />
        </mxCell>
        <mxCell id="YgPP8ybwHyKekFAVjbnY-8" value="Module&lt;br&gt;Federation" style="rounded=0;whiteSpace=wrap;html=1;fillColor=#d5e8d4;strokeColor=#82b366;fontFamily=Tahoma;fontSize=16;" vertex="1" parent="1">
          <mxGeometry x="480" y="160" width="120" height="60" as="geometry" />
        </mxCell>
        <mxCell id="YgPP8ybwHyKekFAVjbnY-9" value="" style="verticalLabelPosition=bottom;verticalAlign=top;html=1;shape=mxgraph.basic.x;fillColor=#e51400;fontColor=#ffffff;strokeColor=none;" vertex="1" parent="1">
          <mxGeometry x="372" y="179" width="20" height="20" as="geometry" />
        </mxCell>
        <mxCell id="YgPP8ybwHyKekFAVjbnY-10" value="Any Website" style="text;html=1;strokeColor=none;fillColor=none;align=center;verticalAlign=middle;whiteSpace=wrap;rounded=0;fontColor=#FF8000;fontFamily=Tahoma;" vertex="1" parent="1">
          <mxGeometry x="150" y="220" width="140" height="30" as="geometry" />
        </mxCell>
        <mxCell id="YgPP8ybwHyKekFAVjbnY-11" value="Any tooling based MF" style="text;html=1;strokeColor=none;fillColor=none;align=center;verticalAlign=middle;whiteSpace=wrap;rounded=0;fontColor=#FF8000;fontFamily=Tahoma;" vertex="1" parent="1">
          <mxGeometry x="470" y="220" width="140" height="30" as="geometry" />
        </mxCell>
      </root>
    </mxGraphModel>
  </diagram>
  <diagram id="wi_KLaQHA45gOhQWLuk9" name="multi-platform">
    <mxGraphModel dx="1037" dy="581" grid="1" gridSize="10" guides="1" tooltips="1" connect="1" arrows="1" fold="1" page="1" pageScale="1" pageWidth="1169" pageHeight="1654" math="0" shadow="0">
      <root>
        <mxCell id="0" />
        <mxCell id="1" parent="0" />
        <mxCell id="xSGAdu5aJnWmErsdaW0y-1" value="" style="rounded=1;whiteSpace=wrap;html=1;strokeColor=none;fillColor=#FFFFFF;opacity=30;arcSize=8;fontFamily=Tahoma;" vertex="1" parent="1">
          <mxGeometry x="120" y="137.5" width="440" height="140" as="geometry" />
        </mxCell>
        <mxCell id="HAEWpgYALYHLay4H5AR0-1" value="" style="shape=image;verticalLabelPosition=bottom;labelBackgroundColor=default;verticalAlign=top;aspect=fixed;imageAspect=0;image=data:image/png,iVBORw0KGgoAAAANSUhEUgAAAUAAAABOCAYAAABR7c9uAAAAAXNSR0IArs4c6QAAAIRlWElmTU0AKgAAAAgABQESAAMAAAABAAEAAAEaAAUAAAABAAAASgEbAAUAAAABAAAAUgEoAAMAAAABAAIAAIdpAAQAAAABAAAAWgAAAAAAAABIAAAAAQAAAEgAAAABAAOgAQADAAAAAQABAACgAgAEAAAAAQAAAUCgAwAEAAAAAQAAAE4AAAAA5QknMwAAAAlwSFlzAAALEwAACxMBAJqcGAAAK7RJREFUeAHtfQmAFNWZ/3tV3T0Hwwy3gBcgnuAJGs8MBogBE+MaycYcrkcOjauJR7yyrrgmcXXXmMtI8tcEY0zc8M+FiQeCDhCjUfFKUInKISgj5zBnT3dX1f5+r+p119R093T3DINu3jfz9bu/9+rrV7/63lGvhTBkNGA0YDRgNGA0YDRgNGA0YDRgNGA0YDRgNGA0YDRgNGA0YDRgNGA0YDRgNGA0YDRgNGA0YDRgNGA0YDRgNGA0YDRgNGA0YDRgNGA08H7VgHy/Nty0+32ngRha3AieBT4avB84DvYCTsPtBG8G/xn8MPhlsCGjgd2mgQEHwCdmzIhNEOtjnd1Dahuk2M/z5ERLWuM815vuSHGmVDVav7ct+azrec2WLdbVpWs37Kja3DlBTMjIpqbMbrtaI3iwNfBpVHgZeDJ4ZAWVExS3gZ8B3wp+CmzIaGDANDAgAOhNmxbfWN0+2s3EDral5FO+0RPekQnLGl5tWcJGLSk85zsdVxAAa21LVAH5XDz8u12wJ1qQ5yUprSZXOsvTGWtNW0tq25TVq1MDdqVG0GBp4AOo6DYw3aoBrrQF8paALwe/M8Cyjbg9qwF5we/PqOvoSJ4HmLjaTTq3ZGTyvsUXPtmOZnGUsFuoXwC4esqURHW1OC4R92ZZnjzd8bzpdfGYgKuAjQAHyBP+v18VAZBXI/mnkqSIWxKAaIkYwm0AxJiUz6HsQ450H9u5NfOMAcLd8t0PtNAzIPAW8GElCh6DfFsK5P0U4n8BtgqkM3oF+FKwGSZTG+9j+sxDc+rtDvdUxxbXx6pix2WSjnAcITp2ZZ7yHPcWK17XtPjCxW274xJ9VKpA8rrpU2dYlnNeTFgzgV37ENJSritcf4yrJPpeH+gUCiI2l5yLz8UJgaGxqJLo9woo5SZHuMscYS8c1/RcUwXNNEV2vwYIePeBjymzquHIv7NAGcp8EZwokB6O/iMCHGq3hiON//2hgXN/d9osaVsXuWnvTGlLOw3wc2EEwYYSmYwU6W4nY9vWbx3HWfDgFx5/fKCvqmwAXPuBiXtJp+amKkt8HBM0YykAYB1YdfCE0KwSAGR51Si4cfoRiFtWc9p1f+/aqRv3Wva3dwdaCUZexRq4AyW/GindjXApQ98hyNcRKauDU+F5DlytI0pwv4g8/6+EfCbLe0ADn/713P3jCe9GNOVMgMdwJ43RIsa+BD6sDQjPBa5gNaC7E+ZPzAIOyB2u6/42mUrftOSSFRsH6hLKAsA3jjn4IzHL+gHm6yakPc/2CFX+vwI+JYyIFZDvzVl6jM4l5+JzcX4GLQEXHciXAnOJ0Ie3HvX+6/im5x8JqjDOntHA/qj2z+Dxkeq5ivsjMOfo+iKuAHORIx9xlfhJcG2+xCJxy5D2UXCySB6TtAc1MP+JGbG3Oquv8oR1PW7vukw3JroAdgQ+LJT2AECCYAoLBJmUKyyMDO0qy/McrxVZv1k1dPi3F31yEW2vfpHGmqJC/Lm+zMXV0voGQKiOvdYvqAGKETnLTQvzgS0HdIz345Qv8Ov0oJSWo/L68lkb6+NcYcyS7UnH+7fto5N3TVlkFkkCrQ2mMxeVcdhZiDgv9/08iS8gjlbfQUEarURagNweEyUuoBDM6oKEH8L9cuAv5uDeUDJpQW4oltGkDa4G5v3qhJr6oQ0nCmndHktYR6Y6Mmqej4hXDAAJgrQC+cUSMGwbHaYmJtzuzPOeI69siWWebjq/qeIHXrFJZqWhN6dNaqipcW5MWPI7AL46WKp7jGD9iYzr1VXb1ndGb6uev2PWtIY91ph/zIq/gMsuBn7UyusFVEOLjsNaTbQAC215IlCGe9o3dKE87uZQHJ+TBM31YIKgoT2sgfnz51sXLJk7fVjDsAUYyi6NxQF+nTCj8O3mjKEijcQ3aiekyq/AEjZfGuVl3D7GSshlw63EnWf95LRj0Fv43ZdNRQFwy5QpdZiJ+48aKa/PoMEEoD1NCgTRjiEx+zrXs/5jy4wZ7PCGdr8GaNn9uIRq3iqQZ2/Ebwml0fJLBWHOG24PpQ2FPwyOYX8om/IejE8tB/ZClv4KnwHBrDoG3/OFpXMPaj7xuTsScbk4Xh07l9YcFznKJQtzbhwCkxQC4YMrxa7jWXZcXmAlvMWfuG/W7fPuPo37TcuiogC4qyp9a7UlL+tyPJHG+LwiiC2rOaVlhhWIPYUOV4svE3YHN8ga2r0aOBfiv1diFYVWdrnt5Z2QjDAA0mr8aCgtCoDFuh7nCfWTeSX8i0NyXoZ/31DYeAdBA/PnC+uipXOuhrX3sLC8yzBvNy7dBasP920lxC8f24azViDtMEqivAzkOo6Hh6v8qqgRD3/i3tlXlFNHQQBcc/RB36qS8uJODNA5Ai/JXC2n5v7khUaAySIJEKyW4uLmU6d9qz/iTNmiGqAVtbBojp6JfMTns9hGIL45lJUAmA7CBDFtxTEqCoDo/lmilRe+k3h/6DDr4GZpTUwjuNI1NAga+OIjp5+6pfH0F7Gf71Y35U6ClUZLrd810wokBinw4wd6ge+HmwFGZTzpZJzJdsK6/eyfz37h7PtmnlJKpeyEvejVIw48Z4hlfaXLdaWHSlXv4TW8V7pR0BbeCUnXkxgOf6V5xvSXxzY990CvizER/dEAgYlDyXKIUxJdYIIYV4Np2c0EU1YYAMOgRz+HwZqiAPgXnQCXMq4HLwSTwuCYQDgKvlxsISia+WIoYXfQvF/Ns4ePTh6IFxm+jvm6z3I7S4pD3f7jXra5BD8bFWT4ShkI68X4yAESZgkFFkXUEDtebR0lZWzFvPtnL7Qy7i1uzYg3C60Y97IAXzti/4mJmHVL0nVrB6z9SlC50nIXl9VCHg+lJh23NmHLW5o/eNzEPFlMVGUa4BewLlT0bfjzre6GsigvhiOCry+ROOxlORLBaYvy+R/D4GirrzrkZypBVKcxHB3GasuRadx6ozsLwZDPxSjVI+IX0UgT7r8GLl0254C9xiWvTcTE8nit/dl0EkPSbv+V1/5Lz0ngfY4XLrCIDNzTUAJXeQNXR2dQfyaF/YNV9nlePLbcdlqvmvezD+fFhp4AyJGulfh37LbZL18vyjWnBB/fZcGTgCSrqoRV3yCskaOENQo8YqiwGvAOydCMsOqSQtZ1w58GOwFjlQdpebkuiIdrYUMOmRtz7KGZ/eNjum8ooWUmS2ka4CEGBDBNtKRe1YEi7mSktQXpLK+tvjj824N4OnwTRIMcLcAwqDUizLh8RLBD58rSWvgIriSOaAp13XOQdhAzGRoYDcy846TPuInYbzA/9w18KWNS7fgKNQoNTBU9pFA0h8J0w0NhNbWISE9FBmnoBWlstUFoLAzF/7Sq5W/OXjjr/B4CEegxBJ72wFlzn5m6ae6Jq1vYycon2Kle2u/H8bHjvcSUqaLq8KNF4oADRXzceIxVh0jsZJTCafNk9ybPbV8tRdtfhNe2CgOgDX59MoHHubrEoH76NfnxKgYffiP9dCwSSSsmT0+eX/XR6tO7/6BLGLciDYxDqe9ESo5C+PVQ3EXwLwiFtXcKPNoC3Av+V4IEll8f+OmMBGsAJICFgauRGUJ0IPzhusMASEtSEx/ofofQMT3dlxCMDq975jChkjRwym2nNDox6wc7tnQPGz2mSjjp8NdXkoiKM3FFmK/L+cTFWSAGq6d1iD8VDlLZLr5QEUvIo9KudccJN5yy9qmbVy4PknMAOO1X8xqSNdanf3nquDEHbujwRrWlZPi9Xl0gr8sBOshtbxXxvfd16874hKidMUtWHXQodi/H/USNV74AxB0ibXU0XFJ4HS8Kb9uDntj8M+F1bUJr9cMfF6ns3dzF+sX5qdMCPxxg55h4WpzjPSZWytliF1MMVaSBu0Klfgb/Z8AcXm4MxT8d8oe9hyGgV4Lp3xxKDM/XjUZ8eN7v5lC+qFcDpY7XHUKHtdsXAHKozWu5VxcwboUaSDgfBuzUv7upS9TXx0QM83PZoWmFIkstxmGwXgQh9OjOIAkJAdoEjmqTREIq6Ym2He7QWI34MEov13VlLUAvk5lWk7Tmrh9dJf5w3Cj3wiVv2w4uSgvSBfK6WCl229tF7ew57shLLhfxAw60ZCwrWuzsdMXarY7Y0e4/JUbUWWLSKFsMH8IrqRZyyPFC1kyT3oh5nrf2RtfdshjlCYJMJwWXmNUww/qyg3QVxVdpvNMzVmwa5sIfZ4qhsjVA0Pp4qBSB6VNgghcXEzRxSJuPOMx8JkiYBJecjzg85psgms7VnjxutBuGv/xwdnaYQmk630J4/gdc8dsDWtA/tOvAeMItnsFU17Yt3WLc3jXQfF+qHyCNoRoFfIATVumPGP1PAqO0fDuQtQW2meho8U+YQVQOmHRg2o8+Vitj1ulWPDYs0ZkWfzh2hNX4txZn8uZOOw0QLEpogZfs8hrOvcAdftFXLXv48GyBx17pFvc91Sle2pgRu7owMYnGkfBus2ioscSR+8bEZ4+vFR+eguklK445v6Okfdg9eJX+JtfbeCfOxyIIkigyuGoGe+iZAaQD5TMYXceGyAa32zvde1A8LT+mJshZwlDpGrgpknU6wsE3p0CQVhvnA7mwkI/2Q+Rv8yVE4jg81nOFkaRewWyfClJ69IBQbgJgKfRJZPpZKRlNnvwagBXGsaYaXrbsTIlhIxKiqhqRhb6Z/GL6HZurzx/6UiCHwwRBHxcwz4L3iZPAHwvA42FjS7hS1WGsemskNiue6WawCIE9O6mYLe+ZNRaYgvOcw7nz+DnnV3fmJ70Rl34tC37rtjvi7Lt2inngh17uFlvbXJHGrA0bS6afcUybt2CnyrtuWzCtEx8l7cnflHLv82FWpv2LUADIlgStUbCuwyGX8RCDvTsfF4kazjEZKk8DXJg4O1KkEWE9pOWwVS9kEMDyEefzdP586TqO5Vt1oA/3mD7SdTL7c48OrhMi7h2RsAmWq4HgVvSAJ2kcVrBzO56LpWi+3HoK5A+qz2IK6+YiCJugWIcBhl3ByDOfKIXjwLyjZJU9CRsXVZ5q7OF5YVKdteSoEW4tlpQV6RpDUjxuRD7yGHfEpVdgNRZvzYGWwuqb+d/bxSOru0VdFc72wxSgNkNDRVUc04YiD/POvH27KqvyxOqldcBNUg47HlcUAKMGPw2GWaG6YXSxvpJCfVXyACfhHgl96MRw1cZfWAOXhpI0iJ2AOL0AMQ9+PY+3N/x6hTdUTPW/b4UjCvgPRzwtyVLo10Uysb9rKhUAuWGa12WoHxpwaWXhDvPg7tzZLbq7HQQH95ajQcUexzURevnBOMUIpoBpBGjVrDxNs2Y0zbClZc+mechjGYihRPWqblfef8oYq3lY3EvwReAooQZ7SJ037PMXi9iYscqS/CMsuvN+2iJaYW4OqwnG5NFykTAlMy/LsCxlkGTVPtKacK0n4/VB5Wy9ZpUDQYQVEObiYeJi4YXxmOxsyt6sLGCobw2cE8ryz4GfK7DPBf6vw9WW337wvxnEhx1+GaXQZGTSdZSSP5wnXAdXnbuCRNUPwxmL+D9XJM0klaoB3mrgFFZbt27FlrZyvoFS6yiWDzhEsFPoB5zTW2EUECLMk2RyK8a9BbG5MQhodLBxUCFNIMwGGG4bGpMPnDjGjeGEwp4jZ5SC9VdzwsnekFNOVZ3xb29nxNd/2ypSAMvqMleEeAEsw7KUQVkkOXKOFCNmI5XjWlYTZTYfcUrrQZr6NvAccq1GJPaY8ETYUGEN0Co6JJQ8NPDTSgu/iaGz0AJ8TQf6cLnYsQF8P/ha8OfBF4FvAS8FbwWnwZUQF2PQ1RVFb78dQXw+59P5Ik1ciRqwoHINCrj1sAVN7NyREh3Ye8cNy4NJ6hxBVEgcUUw/OI2jq8gKOjRCRhpm7dxaNxICDvWCfTwsqMbS8MQwNl55aL317KQhXo0GyEAArEav4VOfZUhi6lDc+USHeKfFFfFgo2KQrWSH9bIsZVBWsGAirb2/xAUSJAdAx6vJgiHFI6ycIJ5puJWA2YcK18wD+sop6fMzkVx63o0KfjmSxuBYcDEARK9QBxNMhMs3OyaA2WFuBd8D/hH4evBsMFeEOXeIL7uk1Vm2SRNvN3YfEuO1n+GvRMKM09QAz8E6YNwKNUAQBPO24+ixubkL+BH+eiqUW0Yxgh7sNUUKADEeVucIdsGoY28o0hzL7rYnWdV2HD8+oi7ALxHUDqHtOAjw99NGibaamAdL0E/IZERs0mSv+phjlei/rEuJP72eCpA2KFuhQ0U+CVl/Wetv/ZLDTpay9mBckW8V+leDTFkQZBN6soNhcGyIFc943qQKm/GPWGxu5KIJgFQ6lbsdHHz58Pk0Ds5aHYi4FyBM6/vj4PXgUunHyIj9FOL0IgVo8RG8NOk5SYbZ1jARhIvRh4olmrQiGuBjJ3zboXvwxJaOjrSaD+Rv+wwmqUMXCIJBL+W8XyZr/YXaGmmU5VhyAn6MRFl9ujBlqLE0IrASLF7ar0b+6aChnq0AEHlTKVE97TiKUlf57PqUWtWFmH4TZWzBCjFlBiTl8A/iSAnODYa1jiBBUNXJjxyrtQ/+jkBC7B/IME7fGjgwkmUiwn8FU7Hh19Z0Nlpt0UWQaxBH4PupzlSh+xDKVYHzARjfKLk7JDcMgOwgYWJ5tr8QnVIowcT3oQE1BEYeZQHS9ZnD363bujD09N/A6EPKwCUDtPSpM8r6w0KuspH6qMHCe797KzMRAvAfACF9PkmgakdCykeOGCa2DI3jh0BoXmL1d+pUlaENO6xf3eyIFIbLpVSo5RZyKYOyXoNMylY0lFvR6Nd9OdC21noPIGRWP5904pynMlSaBvaNZOM+vxVB3FFwk5H0aoT/KYgj0GwCXw6OghDnFishPgG5EVQvcIRl6I7AOAKupnA843Iduadf5z9Ue4xbgQY0+FHNWvNw05i/2oFV4YHAg1Jbxbq42MEfVOLKr/ri2SbdrgKCgH9ijqvm91BEIaGfk14/6AmuAr+8T41cfshQPwowHxvrY0tb0hVbWtH/VY0Faik3GrIok7JJVjXuTSumDDtfq+Er0364SuOB2433BYV7WrlV/4Pm555JzsGFicNMvfhxKvxRIKLldRV4M5gLJvuAOS8YBqSfIszh87XgSoggSEszOxzII4RDYk3sDGEKgzGt1Z+HE+GfFAmbYKkaoKlHACRR6woMEYafsbtaUwCi0qwwihgIIjjxuKw0NxqHKdorQmkAQG+6m9Lza36KBj4iIP0cBuP65O+OHiY3N8Q9C6uudjWnavgqDJaa9UyRX7z/n2gwTtVRsinMs7BPRnBSgVeiHbrs34wjBa6yBgF+vGU861iVZD760gDn86I0BBFbgsiT4bYHfoKZBsNt8O8ThAlEXOzQafCKN/gBet53KvpkvWcVKUkrkfcciR2CrCnsZ48ID5eZR6906/zGLVUDegis9gIqkAhuQY4EPdGNbW0t23ATDyIRATA4BRLQxy6huwXbhyA53COC4CoZsxXQ+au/yBwAn18cIIiMCYzpNw1PyEXTh7uxjOM53f6ICEVFFZ/5fmZ4BoAgqxoyKZsk3S5KB4evIvArq49XpdN818IGa0Q9x/KG+tQAgSsfaYDgUHFdkIFbVnzTXKgXy7WfvZ3bXcL0TQQ4l7ckHFmB/48o81iBcvcjnmBN0h3BD/WcQ2QfigIgO4uhijQAdWrwCzZEq3Dgl92WaGnOqOFoReL7U4hTYD4MQAq/dhJcZTD5If3J5j4sE+g3NPVAdAIfQ/5/EMetMA8fUW+9NL7KtTe8pfIPxft/Y+rRrwayK0EWZVI2yU1uQjuwtKuHuCpWVwg3sPqy/Z8XgF9uR/hRldV89KUBglQ+uiuIJHC8Evj/Ey4B52nwC0FcMafY8LVYuWjahdGIIMwFGr+j+K72M/mOIA8djov4qI6S7kjReBMupgFqmZpTQ9+Qy/gMFiAzNsDPEzuacWZn+BtB8qAQX4gg9fh2I0NjJMOQ9TZl8yjk40eAeIGjUZBWL0f1CxrHyI41q1XuofhRjkPH2QInMmsMZbUVEwGYsiiTshW1YQSFw7PU1WRBkGmamQt+lZ2uH4/d228zxVDFGuCcnqZXA8/owF2kEwbJ3Yh6HuyjLgIch8SaxmsPXAOAIWX020swUAxJNKMUIMLlXFnSf87YiNu5JSO6OjksBoooxOh3zaUJIADq+nw4CMrpAYsftCzHXe9ieMu8arDre4IwIxHh/6u4aliBr0xosO7PvIblFmYW4tgJOIhvqKV+qEhF9OMDC8BiNGRNh8yAPLflT/hdPC46knA1CuACv47TYIg0HoDIHWz4GeX1Ktl89KWBdF8ZkL4pkmd9JDwYwe+WUMnnCuThED2fLdLzjihQ2ETn0YACFtywygqEa0OVXQC/NO9R5AcTPrZuxBY2RjFuMElbgbpO1h/pAVjPkGudZBrvryARjcW/Yj/AUBBWQOjPB9a4tlg4coe9ce0qZVN+YFJCnHRgYkAQntWcDFmUqaj1SVd0vQlUY1hrkNpEg5VGGReKh9+GBZlJinTMsdb6QsxnHxrQCxzRbIxfEY0MwnrerUDybole1g+pHIr7pklOiN/Bc2HjK1ED6qmhgY+3H61ADn07sRYWAhkOf9t3uaJ1B06aCsWXWE3/suk3UjQ85JFmDXfbt2OB9VWcBwgAY38AK7DzgU/FqXgdxvVhv80unFz/3XXcr4pehQu75NQhYvwwC0ddwdxVseV9sAzLUgZlUSbJ2XQPxtaEcuYgM0H7GR3y65rjzGO9Jqzt3IJhqG8N6NXeaE705uwK7r7whxc5zolmHqQwF0QqIZghvRZBOisRZMpAA7jtiC88CYZMAJQd7C69icC3Y3OaP125Z6xADdRZ/Mi10RITMFj0vOUEQEXEP3jyAZ8CRqQyLYa+9PiW561lG55SD4Ope8fEt/6pXiTwUnSyzAslhrEMy1IGZZEy25c43s4VsP4QZibFTIFfEV20W8UHLtMSar1kORIHdx3eb9T78ZN75JQ1H2k8e/T6IG4a3NbAT2cO+OJQuFIvJ3fDv+vRl5xKV5TzAeCGvioz6QU0oOb/CHxIJwhy3i/FrzI/dWNP7y6cE8pbdVBJzQWiUtbLtzqyGxj8VlhNM5ocvEi8xOPmQbSuOPARGP2CyCnauzvlXat+KTa3b1UgOPeIKrHw/GGiHqc9t3Dik3X62Qt+Mr0Fu1xYhmUpg9Ta2ey2r/sebst2ZAnAWUkLAV1Wuq4FwMftghmwK5eIGXlvaiXffPTSwNu9YoLuHcQfB1cPlX8dxP0Q7lPg8MJDkFTU4RdGcCWA0grbCf4suBR6sZRMefIQ4KND4Nfy5DNRpWggAD41/4e736L1p4ececoTN3Ztz6iNyoMOghiaK2KvC7y6iRi0A8lS8iUshKwVsMBIygLUHhXy41RikMoLsrEy+8LW1fLbz/7EbU/jhz9Asw6rEo9fNVLMObwKAOmJLryQrEHTLx9IQflupDHPR3Ak/jKUYVnS9mSHt/rVO9xY+3OYo2SfZbs0MwdIWX06Lufil+G5CXotdoO/RDz3M5vPEjSwtkCeSYjnd8u9gHoI3AS/puPhYfwG8FxwpIshxifGHwu+B0xrjHNyBFBO7r4LfgRcCnE1uBLiaCBqovy5EkGmDDWALsHbjkNfWn/dUdX21BJvV26ObmvB1zDYdyV7r55F69ks/4mI9dVtKcv7vbSty9WYUTUw10ofwIIwnFAKzh7FmYGvPoTfIK7KXHHseXJEzTA5YaQtFl00XJTymyCfw2+CzOZvggS0pXOX98CqBc6xrfdbdcNi0vGA0RjD+0fssGYNdvSD1eMErn764LuwHPm76mQN3lKgYWGoRA1wo/GMPHmPRhy7EC22I4N0DllpUYV7/X4Ic36OeZlGN/yF8UkWBUdakpeCOQRn3lJocymZ8uThSjfbEKbHwwHjL0MD/CY5DAawyDa9Q6Pv8i1bM6KuwfZHan1nH5gchAxagTwlgW0OkeoQq770YOdhCz7yR5nwLsAQsoFHY5FylpvfN3NhlRp0WSlq7Wp5z4uL4u+0v5u+8tgL7YNHTsSUoi1nw6IjF/9VOFUVzv9zvNe2r/Vu/fPd7oS231gnTJKW6+buF4Vz2Tbp+8ovqz5xkXxzxE16u9yU91D8Y+9waGWodA38HFm/mSf7FMRpcGJXIn0QzFfeom+QvI64iWCCZZho8eW+TD9lF5yzw5lK9CeRj99tucNuPtvD7SIgvgA2VIEGMPjDdguc+LILX0MKXy0XQvog3sP8eUqC4KjxcYFT9QaXCIIWn805yj4RE13JVenq2oewInyO+hmO7PVEh7BI8P99KUBF3hX1VXXi0TdXxldved05++CPeLMnnSynjp6M1dyYNbzWEtP2j/Z/v3jazbivbH1dPPLGSu8Xrzwsa9Ib7DumEoDxep6SzIawBsapxQ24Gpxz8apRHMI78qF22blKZTIf5WjgLWTeCN43UoinwtBCC28qnh3Jo4O0AOeB99YRgbsG7hjw2FB8A/yUHV5YCSUX9b6B1COK5uidSMCrCUUP9kbuUNX/B7xxJyO7MXuxC9ZfCeCnr5hnBvId4aEj8Kua+OkK39TSqbvZhUHlOdysmKMsAL54eVPLlAVzfimqvVlA6tH6mGk/aw7xCEeKAnMwF8ab5fEhYkvnDvvO5+/3fvv3pd6RYw72jh57WOaQURPF+Lq9xNCEbzC0pnB6dFuzWLN1rVz17mrx8rtr5NttzVYav8R+1wEZd1TCsRwHgMnla4KfqksDqF+jbxESnBmP3yfhmyj4WQIv5f1y+KktLX4jzWeZGiAoXBEpw6fMOjAB8Gfgc8GFiPOEbXkSCTxbwGEAZLZR4EoA8BWUKwUAlyHfTDCJc458bU7Tvdpj3PI1gF/ZfTS+s+4S18aIsefQsE9hPLBg++aUGDuhSkj4sxjSZ8nKM3Bx1LKsNhwA/XhYCjt3mORhd8/9CQ79+xcvrSfV0Dz/38+XB/iYQV1E9ko8waVlZrVty6vCb/5Wx6q8OFxSyklj20tSJp0UTnxx0TYslrgxcdqwTvfeA5txQg2fDFlhKBH4s4rWaTkXayU4ptC71z757QsImaoi81GuBvZHgfV5Cv1/xHG4egf48jzpOopDXXTpXsPTdxD3V/Bp4DBxUeS5cESJ/huRb34JeT+CPHpx5SH4CYaccI4OhxFlqFwNNN7ceL5VY12Gu+0o3nFuMHVWihzeymP3T4iaOrxBhm+DYWV0UQ4CnK5THMTzLGamEzz9NJ79xzqDvIGfR+PzXEDmIVl8H89HuRe9TOa7TdetXKgSgg9tVuk4L5NK3Qz0eUsVYkNYcTYVYfhVWHn8UDYcpDKM5Vthcwck0CyZScmWZJu1tXMHeLu1K9lqMQ7ZsYTCJtiiFrurb9xvJxqLVVxVOVut8TnwK7MvGo9cfvyGTNK+GamqOShsqHwNbECR5XmKaWtrHNI4d1eICC755uYYx5XeKO0bjSgxvK7EfOE5v7kow/aRrvUd89kfDSy/YflPcS7UWbAArwMyNMd4hBNvzxKI2TgXqI6vKrFML7HF7nTIZHvYLvC1TtI5Kwp+lBcFQPH3Ly9d63Wnr5dxq1PbgERBmrnZ+pTHDwdeiArCjAhlJIBmSckJJ/uZWx0pLhnX5k6qTeN32dFyAloPsNMaYjykhdIIfla11YkT86+vnvXW2mxdxlOpBv4tT8GDgrjJcCuZXuAyIZ5uvYiAWglxrlIT5ycLUbj3hfPcEw4Yf+UaWPG1FetGPzv6v+yM3eiknYUW3sIi5zCggGzcx9wc3cHDlPXtXSBrudF20Aan21mYyWQaRz8z+r9X3LBiXT452TnAcOJrX176i4Pu+vDhdrV1DX4sXc3EqXTVnfw+lfMGYd8JxETjEPb/c9UEyNiJickja1LuF8e1WV5o1VdlpGKUKH5EtIQg9zzLuPQyHe734jM2/jIn3Pj6oYE/oezz4GPyyJiEOA5nyyVaXhweR2lkNKLE8PZQvrvhvx7c62EeyhP23oBAJSAelmH8IQ0sWrTIEYvE3xF1fuNtjT/BUuX3rCrrKB6yUgwIOUxtb8HPawzhVrfI/R2SX7IXIuyEjc3WzosYRl+2/NrlK/sqW7DT/P3iJddhO8kCCYHK4lKAFbXyQuFsTYgj2CngQiQ8KqzTVZpfjie/APXElfu0ijrbk64yObUi6IJD1p4vwk/n2F7ivEA3LRbEG9+6Tos37oBo4JwCUkYgPlkgLV+0ni/kl3ZkngzcT1gJhU+d5myP7m1RWfnib49mMuGB08Dyq5evbLq66WiRdq/EBpA38INrnno7K08VvLWTeH8i2c6vsHKifC4kwPJ8w02nr3ria01Hsx2lSCwIgKpwS/s1btr5vsUDU1GJAjUCGv8CYPO7ng7TZclQOGiFnx/xLMA84A4MfT82ssttHJ7CqfuoI3vCC5vFeyZgHR+AIRZWfPBLye/v8KquCaowzsBpgE/zHxYQV2wOMFok3L9OiyYiHN1HmCdL3qiOvLG9IxORqJkIh8EzkmyCA6WBJ65d/m0vnZwDq+Y7AMG38aZEwc3Pu3bgOAKuaJRBzE2rkfN8kP8O7KjvyrQ7Z9lVK8p6wIU7aK/q11zzZFvGc29wu51b8N4bKwpAUGf1kcwHvSBOA2MoC8FPkZ8dXv8owfH4taXz9uqUWAjCMDsMeNrPUtpPFwsr2DskMMZ3u8Qt+L30G0afvCbftgsWNNQ/DdB6wwRNL9rWK6bwoRPhfXd5ivX6IaZ8efLFRUEs6GC9sv46FMNh/eOhsPHuZg00XffUG09cs/zKjJs5w8k4PwFguRyihok2TQpnAbTvwnFZTMI3yTu9L4oBULlVGMPdhU7aPWNJy+NXPnpF0xt9lYumFwVAZl77paW74s1vz8cvx10OK7CDIKhNOOKaxjZ6ei2UMI5XRFKOH6aX5c4a2e1Nr8dKUBbkmDG4fGomsPgYy3gbG529mN2Bofnl1qaq+XL62nKsEV+M+SxVA9w3t0+ezHwzJEoXRSOCMOf4illrPe+GAkLyRJc6DNf9m/mn5ZFjona3BnDLrrx65fOyU16C5+SHsFVmlb9anIM5Al8rDkpIo8dxsJfFlGjbgBmEhFhNDFtn3BeRPDNZ61685CtPrBLzASMVUN5FkKic1fNXo2mrv3PAnTNfwxtuP8DrHRO8DE5FDShr4eUiNOyFgE9nhhpwIQfUpL1/3isJUVIW3T6kbEOs9MbxWrDrrpfd4l+tE994RFdl3N2qAa6wfgr8QKiWqSG/9nIDdD7inOFm8OR8iYjL3QUFMhSIJjhr6qsP88bYV2c27p7RQNP8Jj6ElgMYjptx2wcvl9K6AYev1Ov9xtwO07o9LUbshZ1LRLk8KIiDTjwn7bU5Kfeb7e8434bMTH+vRj8hS5Lz5iXLHskkvZNkRtyNX5JrVmgdlgBgi1qBWRsQaURFOtz4PG9UyjukzsH7vrwHwMrhBwnDbfzZOKPQxgu+VrXd7Djins5tqZPliWsM+PlKGqzP/0FFheYDdRsO1p6I+zmED4jEhYOVdmAOzfWqcl8AOAd58w3bw+0w/sHSAN5xaLpGzdNNlY68G4uZO7igCcNKdLZhQQQnxnB3R9aCgh+LKXyhYqeb8X6KdygOX/z5x24bCPDjJWvEKfvyJ39/1gy8MXIe3i+ZidaqoZJa9laTmYS54Bp8byAfP1qM8OG1Ge+Bqe2iIeaGrD8/I/dOY2uLXxq/xOm6zjIcinBv/PjVTwRCjLNnNHAvqj23QNUcjhxVIK1Y9I+R+KViGYqk8dW60eBvgy8D5wNCrmaHrVcEDb2XNNB4a+OpGAJfhEPfzwIQxmIxTwwfgw3MgAM7zi0tsA2l+B2wZcGv/2Xp0oFue3YYW67gHQ+vXT/+2NqH0jV1T+OdlE1o5BCMwsdLjM9xrBbQD1cQ7KQOD5EZe8vELm9Kvf++L0bAHN7SyhN4rQYzosghxSqUuRuW5m1yg1xgn7b6zXLbZ/IPuAZ+B4l7gfn6WpT4xOIQJ99bING84fBKBB4NR5Th/wLyco6RixvTweGxCILqUIZf0WPovauBDUs3rN975j6P4mzRp9HKCdK2941jrr+mHvN8afcZjBAv7fDs7y4+d8mru+MqKrYAw42ZMn9KonXk+FGWmzoYQ9ZGvIvXCAA8EkA4XB2yCpDDDJ5o63I49BV3TsfohYsp3AjY7WIvn9eCBaKXAHrL8cJyU2cyuab2ndg2+UnOPRp6j2ngKrTnvyJt4kr8GjCBiKeuECzngfuim5Hh3/vKVCCd4HkyeBOYp8+E+/IMhJeDDb1/NCBPuvWkupgd+1xVtZxfVx/7Vqah9p7FH1/cjksAUOweCneagalh/ozYBAxHMvXdtTFZtR9+MGUins3jMmkxHYbeGY8d1S4mD3EedIX9LOYHmzEIXhdP124Q3Zs78QDIyFP7P7E5MBdipBTRwIeQ9hg4bHVxsUGHfwR/KUPbK5GPQ9hKiIcbcH4vTBsROBFMUDRkNGA0YDSw2zTQAMlNYD6do/xEnrhoHoYvAJdLx6PA4+CovO+VK8jkNxowGjAa6K8GPg0BLeAoIJUSLmWYzPYdAr4OvA4clfsK4swePyjBkNGA0cCe08A3UHUrOApQxcIfDZrLqRiu4taB9wXTyvs8mIsYmBrJK3MD4gutSiPJkNGA0YDRwOBr4Kuo8g1wMeCrNI3zjKvAZ4ANGQ0YDRgNvGc1wD16nJd7C8wtMpWCHleYXwNfDdaLLPAaMhrovwYGfhW4/20yEv5vaoDvEH8CPBN8IBjvPClA032QAEkLj0Pe1eCHwb8Bvw02ZDRgNGA0YDRgNGA0YDRgNGA0YDRgNGA0YDRgNGA0YDRgNGA0YDRgNGA0YDRgNGA0YDRgNGA0YDRgNGA0YDRgNGA0YDRgNGA0YDRgNGA0YDRgNNBDA/8LdERWibCQNHoAAAAASUVORK5CYII=;fontFamily=Tahoma;" vertex="1" parent="1">
          <mxGeometry x="180" y="150" width="320" height="78" as="geometry" />
        </mxCell>
        <mxCell id="xSv2MIFOpZmavojm-aZv-1" value="" style="strokeWidth=2;html=1;shape=mxgraph.flowchart.annotation_2;align=left;labelPosition=right;pointerEvents=1;rotation=-90;fontFamily=Tahoma;fillColor=#ffe6cc;strokeColor=#d79b00;" vertex="1" parent="1">
          <mxGeometry x="202.5" y="187.5" width="15" height="95" as="geometry" />
        </mxCell>
        <mxCell id="xSv2MIFOpZmavojm-aZv-2" value="Browsers" style="text;html=1;strokeColor=none;fillColor=none;align=center;verticalAlign=middle;whiteSpace=wrap;rounded=0;fontFamily=Tahoma;fontColor=#FF8000;" vertex="1" parent="1">
          <mxGeometry x="140" y="242.5" width="140" height="30" as="geometry" />
        </mxCell>
        <mxCell id="xSv2MIFOpZmavojm-aZv-3" value="" style="strokeWidth=2;html=1;shape=mxgraph.flowchart.annotation_2;align=left;labelPosition=right;pointerEvents=1;rotation=-90;fontFamily=Tahoma;fillColor=#ffe6cc;strokeColor=#d79b00;" vertex="1" parent="1">
          <mxGeometry x="332.5" y="187.5" width="15" height="95" as="geometry" />
        </mxCell>
        <mxCell id="xSv2MIFOpZmavojm-aZv-4" value="Deno / Native" style="text;html=1;strokeColor=none;fillColor=none;align=center;verticalAlign=middle;whiteSpace=wrap;rounded=0;fontFamily=Tahoma;fontColor=#FF8000;" vertex="1" parent="1">
          <mxGeometry x="270" y="242.5" width="140" height="30" as="geometry" />
        </mxCell>
        <mxCell id="xSv2MIFOpZmavojm-aZv-5" value="" style="strokeWidth=2;html=1;shape=mxgraph.flowchart.annotation_2;align=left;labelPosition=right;pointerEvents=1;rotation=-90;fontFamily=Tahoma;fillColor=#ffe6cc;strokeColor=#d79b00;" vertex="1" parent="1">
          <mxGeometry x="464.5" y="187.5" width="15" height="95" as="geometry" />
        </mxCell>
        <mxCell id="xSv2MIFOpZmavojm-aZv-6" value="Node / Bun" style="text;html=1;strokeColor=none;fillColor=none;align=center;verticalAlign=middle;whiteSpace=wrap;rounded=0;fontFamily=Tahoma;fontColor=#FF8000;" vertex="1" parent="1">
          <mxGeometry x="402" y="242.5" width="140" height="30" as="geometry" />
        </mxCell>
      </root>
    </mxGraphModel>
  </diagram>
  <diagram id="Vm1tZFKa6ilWqkW7u1Xt" name="multi-framework">
    <mxGraphModel dx="1037" dy="581" grid="1" gridSize="10" guides="1" tooltips="1" connect="1" arrows="1" fold="1" page="1" pageScale="1" pageWidth="1169" pageHeight="1654" math="0" shadow="0">
      <root>
        <mxCell id="0" />
        <mxCell id="1" parent="0" />
        <mxCell id="MJy8NWN_olUpUk0M4Lcq-1" value="" style="rounded=1;whiteSpace=wrap;html=1;strokeColor=none;fillColor=#FFFFFF;opacity=30;arcSize=8;fontFamily=Tahoma;" vertex="1" parent="1">
          <mxGeometry x="294" y="300" width="520" height="240" as="geometry" />
        </mxCell>
        <mxCell id="qn5EBnbspL_nzVi48WmT-1" value="" style="shape=image;verticalLabelPosition=bottom;labelBackgroundColor=default;verticalAlign=top;aspect=fixed;imageAspect=0;image=data:image/png,iVBORw0KGgoAAAANSUhEUgAAAOQAAABICAYAAADmiVkYAAAAAXNSR0IArs4c6QAAAIRlWElmTU0AKgAAAAgABQESAAMAAAABAAEAAAEaAAUAAAABAAAASgEbAAUAAAABAAAAUgEoAAMAAAABAAIAAIdpAAQAAAABAAAAWgAAAAAAAABIAAAAAQAAAEgAAAABAAOgAQADAAAAAQABAACgAgAEAAAAAQAAAOSgAwAEAAAAAQAAAEgAAAAAYjy6rwAAAAlwSFlzAAALEwAACxMBAJqcGAAALl5JREFUeAHtfQeAVNXV/7mvTdkGCEvvnUXBxBiiSLErCoYvYEw+DS0GiZrYkk+/aPhr1M+SaNRYaZYYIzEqqLFEQMVeqEtdll6WZevM7s68dv+/82ZnmV22zMKqiXkXZt+bW86978z93XPuuefeR+QHnwM+B3wO+BzwOeBzwOeAzwGfAz4HfA74HPA54HPA54DPAZ8DPgd8Dvgc8Dngc8DngM8BnwM+B3wO+BzwOeBzwOeAzwGfAz4HfA74HPA54HPA54DPAZ8DXw8HxNdT7bHVeuDsEzJMPX6xpsoJXZds+QEeQh4bRb90Yxy4/DOpy/bWSFeo0xRdmePGnQ+Fqj5I8dhHSjS45/GThNVYuabiLpdSdzfHejiB4CjFca5SAur3XMt9WJHOIlGmr24tvabqaat4+a38AZZrn62vPuFRQcJtju7z9Lw6PO+k2Y7QXj9+fa9tzeVtLu3fApAMQMuIjSUhzw0q4nQikacpgqSkqvblXdqJFSvs5h7ST2s9B+YclJlmlTOfVHVqIJvIriFSdIx86JZW1I2C+e+6Dj2ycJD2SjrUp2+xL1BUZTYpNEbPEFlCIXIBZy1EFK8EBcd93shQZj6cK6Lp0Psy88iRq/pICi4UWs44O37gFH3dtz5Mp74vhmwd2y2Yu6LEqny7rEadMbqw2650yqXm+ZcE5O4pPULCzuyJUfR0hcQ0Q1W+q6GlUcslB61PNjqoCivSLp7dd9GOWOpD+ffHzoHpBfZzeli9mBiAMXsZdJB3SIruANJ5Woba02GAamQ5lrMkYqiXLu4pEHNkmLJbhrJM52lVVye6NukqAGhXObsB7H9ggN2LH3OsHtROB1DJqnb+unCA9sMjqXw1MXLExrOlalwthDqBpI0xx/5UWTXk5NbUvvH4PV+Q1E+0pUKOlEujUj44emPnt9Klkezb6eb/UvLJuaQUfDxAz9LEWXiQ63SVxmn4gWK2bFYXhZAkUo1h3V5cv/FLadh/KNFpm63TQsdp75qQXFK6Vyzorz6ayorpW+1JQlF+pSg0SoesM6NyB5nOT+YP0t9NzTdzizWGDPVJI1P0sSLSdV36CH/vXjhQezk134xtzmwhlEcMSOKaEnvMosH6e6npX+a9HLdco7L2o6QSWCDU7IHkVKE6KFwiiEeqvDSwZuQzral/zdCdlxlqxpMRJw7hISggMqnSjm20XTlzZcGGT+fS+Ga1OXT7ry/sv2jIuD0TBy8uXjV4f7uAWukKsVRR5DjLlVSTCkbMEFlVUlSiULbCI3NdkI55Rt0X/6ZNOCDIvc4xeWIu34jElAUNiTKgIoY4U9ruD80Kt0gzRB8ytNdmFDg3JPPOKLBuABhf4zTOw3m5TEMwcv79mwsXSum8yXUC5NcmaXzZV2fkhp/Lyp4bSM1+TwgdYIygSpaMmA65scjLa27/S2vbULqx17M1brwaT0LowlRhswYuhqpC++DU/iesX9qnaHZzNL9SCbn7gkEnY9CYjHngeIfk8YYQIQuNZgDWCwxAfBh4elCQho+qo6kYPrjBNeUuWTXSu0e213os3TKhXnn/y1FzYMoHMpTZ0dmsaGoP17T/Z+EQ/e7miM0slL0h9f6hGspQgQHTrnJ/xfm1DOVuifmFY7obIU3Pm99P7GyOzvRN1q8UQ/s/13b2RA+pgxef0rgK3ByNdNLkyRuPcyx5kULq3ULN6pAAIZfkPuiyRkAAJ1myepqx+sQn06HZMM/HQ3fPUin0RLVrom8LABNDHMjzNaTkUMSJFjsO3eC6+tKpe3JKU8unyJrU6La5P3hBv4G2onxXFepFjisnZBtKsBrDRrwWgBiLvIoYfAw0nugz8LQgflCAUOGJI9I4PZExwTbOY1Vj/EYy/o+uTfUvbcCB7HaUKwJqBvhquqoobIkkA23KB7u/ndm56zzFUS7WwooHYMeUDnTUv0YP7p+1+JSejc4v69FGXdCATKGoGdntYrlI21kv/Ri/bO+zPNgrJ/cucsLTYHrI9lQuTyIyYe5gEBEYQRKTJL1ID9U8f7RVHqxQn+2crd6Orp7roJM60O5YfeX7iF1Jtqt0kqQsEkKreLp72fxte/fdOJfyoB+g3x9tpQ3LzYX8uvTMflmhMES/pFlow6UhXQlXozUmAIgfmMpNxKYEZgOroQbAZ4QBQADNA18tAFlNbSyobO1DHgGiIU3JLp44OKvTks2sb/jhGDng6maGKgzY0tB/HE/fapEiAw7Gm1lZpuxix5zTuYAilHeihpoeGJFfOjIKDYgRobi6ktFipWlmiI9YnWcooZ+RUGdhXhgil+eIqQFSEdVyh/L6oxIkx6l6XvvwlJYHkVQyKfcX7utWvSJj3wsBJeMKk2rqwOhJSUhMrtHGhNp2a3IMkXVtry49f/a4LJsXt9VHjxmQpRfm9aoR5pUQV9NCqugQc6WaxFGFxTbRhPRLaa83OIU7qqQHEmOTxwlkaAqAqWX5XrDkrA18F7HNDnxJxvnXY+AAxmnYM2qHRIyWaYYsy50BtfV011K8n1/o4nSOQ/E/pUnCy4ZBVpqerGhNqabz6iK0jocHIB4drBEwcjybkvHIDBWScToki29smmJ6KRWK/uscGMRcANCTkuCozWBkiYl7x7snqsYAAUmaAdj8AtHTWw3Ig+f36RJXAz/BE04Oq0o/U1odNW8CK6maa2o0ID4Kk52qkejQiQSQKAlLWVGoz5pBFOABsamyRxLExN9TbzmFpW9AD3TH7c4jc/oxreWAVNxqDIzoNqRKRaQlqWB1nQUwPuStLcac+7hONahdpwrlIaTFYciZ11I7vLpc1ImOoKMNLeVPP93+DJ3sO0fmZxWVgchGT5aOmDviDt3p3i5rz2mI3COLtxAzaXOnyBv9Dz4AmF/N2lwSjDaqTALUA6cHWK4XElNqn6QNyE1QC9sJ2gHh1IEL1WBgqYI6yg/RJJiwckwQzfoZk0kb/31S+gwlEc7CgIUStkNu5SGigs9IvPscqVs/JVfH5DEdYHJvMTDSmNIzCGmKexIKfsAt8cOxccCoCpbZumsKVcnRyO3YEjUYY07XgurveZGfXOfvekXxLVzGUXL7Yj4ymdOQpxDGoWXN0eK6XFfVXMc1uQ3N5W1NGjr9WlUIADJ1wE/MF3lmh0Z7H5aOMOY4QtQ81hr6zeWNudbDhpJ5pUtxhcF3BBjRJJZhbI11XYVbuAHQSC8MwRwNC53rWQryB4VrwdhEedsiLe87lPns5xSY8ztS+g4DEFFprIpkdRUJK04ilEnO0NOoas482n/+9aRYaartqNyzuiarlmJc8ta/HhsH4L5WAatpEVRH1XVlP8lrAE2E/95Q1RXubw9i3M1G/vWqrf7s8ZO6VfOH7zmO0zgP522CDCSVhF+a6Md1AtRF3Iam8rY2XlWUnYfLcK9NBSMDkj82wIi+KWMrxRenFBzOf2x3k7Z33xxzYh8rMuBZWZOSkdVVtriy1PRA6klJCBhH7E1bQnLTHFverGvinSY102T7LZOC195L6vfOhSTE0BmHIw24LfDhazwWo+JDh+jQwYMUi8fhnaWS0n4AdWWdJ43AKgAbdpIB7fEtrUlmtMFVujJfDdAIzGsGTt2wgTldb1Z3xU7Z3rToOPSIezEwDnPwE9umsxxTtanTt1hhboIpoHbG5XLVUIdznoATeGRmgbyeAlQ6v6eoZ+qfuoH0rLA6EHWSHZP5bfAIdSRc1ylX2HIICchW1AQAWSoevvfUVaSZjj2jrmAzNxBHXkdtyb+VSUhLmUaa2MwGHcYNg9GrGU1g62tySYTvXceuaBUgqzVlVa4qqJph3VhgwEEChu9fSqJ7P9TGekwiOFh4yc/PJ8uqjWNUMUhDWYQ2UrB8HzlGGC68rNO3HHiNspYEhTWl04GzO2d0ebPomHX/lmv+D8ih0Fvg74/ggjE0Qxs4YmaB3R+8Ho1B/dtQjfrHTKeTqitx6aq6VZ34vbSAdhVPRdBXub+x+gRph05n2p7PqqJpFwpFnuvE3ABAewjp24QrPxeG/p5jWtsU0oZ6Dh9SvOWVb6M/aDPAnwQjt5X7Ln8SgPR0PXaTI7k8uO60wnSq3THkk7N0VbMon5a1lH/y3k5bXugdeQc1jmVlw2uBJxlrjTu1IJXAuEWitFWAZLV1zwWDXoPmeT4j/ogQLafQnX8l0WMAnvcwsFgyRiKVFMcwgGVnUs0YhfcVUHbhKuoY3Qow7ic1XoU5JIbINIPAwJDUm3UY0co1uD1R0eo0i/vZGuHAlHxpZAdoEIwd3ew4/4TuED1D/8TAtJ95zZ407GTuWK6DT0CA72pA2wvFphQ6mSUdgekQD5OMR/zqitS0kKbDXtHBtd3urgXdTQgHUrMjnMo7qgZ9FxnnmBEddLFSF4OmpKndIEmHV8Zpy+I8UU8yN9LkFqNgmaogwbLJRoepLxU9yyviFBVTJ6vijy0Sq80Ahe4ui7DqT3RyOmWidvShkOg0Nk6VmCvWqqpoUcKog1axRJIKWGdV4q51Ydv5QwaFNXfzEWqrGafAz28j/cwpsBxDRU0Jqq5T4bv/JJn/MWVtXUWhPVtJMWvIDQQpqwds7I2iO4VAE7eRA4nBOARLU41JU3u8unlxE1n96GY48KP3ytsHu2RcAY+aKVhS6gNgtQNQINkAEvQfAK8Q109dUtZIx9muqOJWbMcaCi+cPejJY20nUKHEyh0l1M4J8koiArAl3Jpy1Q22UzU1noM5xjuQqvD+cTe6Ut6CbVx9FXJHAL7fwe/fD4U0gNEDPjx+yuFqtwNz2cWxmqpHnj2h3VEbeazjvxijacYKKU3B642sMLKKys7jLCkxcPBYsltbe2avZlhUl7Qn7/2RWUrWKhtL+MVm5Yghm0etrUts5mZht5J9lqN2jQE4JgDozSfRfZPGHpKGG5fm6FZJSK7v6dc2FVx10ZCyGsdtn1q/OmQkaWdNhdHmSMOMY9uUe8/l5GbkeGqqxBDjQFLyT4dRE2u2KZRglfVCwmMAPxOmMFB34SuHQY4BiHSea/LozEnQgOM8OihiBBJ9QCa4l9bfa7AToyLuXg/A3aQYIujEsSovhI3pxQH8OIf0sDYcOz02L+ivDU8SnLnVnqIGlKEsB6VpzVo4NFiYTGvmWjJ9Y2wWBQKvqyFlKKyCAh4+9yTzTy+w1mPHR55VY69HXEdN0zoCKiPVkDYypGbdDB/ZO3ICyr33NbGjJEmnsSvMRbxVDK21MaawQYf7F/ejBDDZA8J24zMbK9tYnOLGr4yChiUMdmr5OfL8rLF8DeMUV8wEd1/jeaw3j0SLGJTc3bn7CleVQnVqvMlpw8LNfZ8LRACMr7KaWBegngZ+Cf42kIxeOnght2/0xiIebhsGs5oZhMBp8MmVp0wm97a3yL3vM3L/7z3cv03unSvI/f0n5N7zAcnZD5PsM4JETdTDKhflBwoIyYD0Q5ocmL7Nnl5pyw1GjnKrGhRBeMpsQ+/4kxO3J8g9u/u6pF1kw8cRoMybtkWOZLKXrpG5pCoLeF+kHXP/CDC+kWZ1xHntavsBLss0PFq4ZdpcB9eFzXUXZZLWB8LrfG4LtwkADnIbua3c5nTrS+aDo6YJ3x8IZZ4ncl/ja+KeAYqY/YFo+L1k/pauupQXOtKEjIiRLtULW8qfTC/RqlaQVItYGcT/BCgxLnhWVoeBKaS01FirAckVmMK6PhVaAqqnOK4LauKqGgRNI3stlgh5/bFhABF2Eieor3TCGR7o5NTf8JYOJGASY0NN90x4EIOw3DJoJfzT5S8WkPOHz0iddjMcDso9qhhRT2hI/mi+v/POO5etXLmykcYeDbV/zTIztpoLsBywQA2IPmalW4WdQrOVmBjVa4B69YKB+puLxveNZZhUhHn6BzxOCmn9kp9EC9lPoEymVSW3Bki5o+HTzdxiT5hR6PyRP3zfMF2Nx+/gskyDaXE60/bq0JT3M8xA0YMDRXxeP/EWt4XbhN1Qs7mN3FZu84yt9oKGdJv7DvUb8ycesqGiSgtgqNWyAFBFBGBZjTwmdoyvP8dqgmDx4L//GFaOXLZSCZSHm0vXdYNXTm0ie73oa/f0rKlxYk/AVc6DScLCyoBk9RXd21WkZbrxVFzVI9DSl+JJgzfBTW6wgHQ0Js8ifQqkd1LdTCksMttRzQ2TySnc0ChgJQw8WXP+h+TZs+BtgK0q+HXYCKTAcsQb6DxtI4Xe4Vs8Bbx8ZNEeqrnlMtIqSyj3lW1s6qkVuYdzNnW3fPlyDfWMicVi288555ztpaWl5saNG3VYgs8fN27cP5oq9+8cP6PAXhjsoE6LV4C3jlxiW9UznhqaXdLYM8Ea+htYR2/DD3cARpwrtLD6jLRlELtAfrlwsPFQssy0/GgXJRRcHMhWR/P4yYGnE/FKZ6Vbo05ZlCegAifC9M3mldjVcT/mqjG72vlvzCsfwY/eBTRvhvPA75L5Uq+Xbaw8TtPD2K8oJgZyFIqVOosWDNCmp+Zp6r56+Ds9Q3q4wHEjRqIvJQHJ80kZ0dZdgNG/5QA9T5QOemG3S0b3GAzIDEeHgljZUXflbR3du2UK4CJo3NchGq2x3XAcNiYLktGbS0JsKm5GXARL+h2VhOTKa2z6WxCg4aCfewlgAIA0FsxqcrbCnbAx6YllkcDEaSRPv4wEbyEDEHlZpLi4mNasXk0lJSWYLjY1ZiAe5UWHXMpY+D5l9BtMO8Z1alZK7tu3Lwzag8pLSn5aWVm5fNSoUVYoFHpb1/WruOkYgV802ZHSdWc39ij/7nHTNpuXKppyWawCXVPSbejUk5oCIz8r9mu8DEtpBHlz4bkzD0IhAwW36ll6nZSamV/RAYuIr8NyOjpWYpMVSXz4XkOcniVf5zxJ3nFZpsG08NvOhzLZOVGHW2/TcjI/X7mN3FZ48fyO287PwM+Smqep+5BeBekHfdibO7Ihh+eOkI4Yt6VrYZ6VXjjU7+lvB0nt5rpwaIGkZaMQ3weE2nPNgHe/lQ4ViBqJQy9+z8uYDAeWkt4HwLRh2bKqjaNTWblyEdb+wLv6BRtdOnZHTOOAdPI/IcmSr5Gg9BpAgZ/eQvGqKG3fvp0+++wzWrVqFe3cuROav0lbt++gAweKYPRJtfo0IAQQy+ooBe5bSsZZl5yamoofXgUAsyD5foTPhzk5OVXZ2dmb4YnwOAwX4+JwSuAPpOT3vXKOs6BLly7sUTSRpWcqrX/3+8s/2xfGEsUlkDLYOeuuWNBPvaWlZ1o0NLAOB1u9j1046L/OcXoGxqqYfePj3QRGz0RwldAUKDLDMT9EZ0jG4op7XqPE2lue1DN/kEzhskyDaQERHeADK7gOriuZp6nrwgH6zdx2fgZ+Fn6mpvIm40sjFIf1Cf0/MXf0rKtY68ZuFMREnkzma+kK4TMt7lYLVlV5rdxbL8d93KmCTVJJa3DgOsyYsxB7JT35xTKM7ZWelITqgd5oHrWE7Lk4v9QsK36DLSuAROPPA7DY7+PolMCRfFMgEfeP/i/69J3ltH79eiqB5w6brWQ4mzQrRr3WLaXvvHwjdb3zPKKlD/IercbrqI2NVlZSh2vv+nX+888bAOFsBmBNTc0hSMAyeAL9GZ9RLP2qq2E44uEJga8dO3YkwzD6vP32270Vw/iib9++MAZibmGa3ygjUSwjk3vBMD5UCroSGJpegGC5jQ3eWlCjeLn90aJhgZeSJadgwJOqMpKcenbyZLJ3RZ/VIItO5LzJBKbBtJgm0+Y6kmktXtF27xkkDfWeqYUCHeyQacEbwdvrCAsnG3d4fIk50edC+ZftaqG4l/zZtx/TMf+8guegLB0FjDoCy5DePeaT0rXnyLkJ752W6N0ca7cddb+oEjZVoP8xGL3NicKOj6BO8aOSAgcPHhytGcYlmhk/3gllQALWDZj12iNCYXLWfwqdFlK0FgTJDK4RoqwPX6VDP74J67YO5ezbSJ0K36fsA5soEAU4EeAIwkcGkHhrPkZcgHXi1ehMMPY0ESDtevY677w4AOZJPpZ+zQUVBqfczp0Jz8PgvHjXrl33A8gu1GZMnbRTUPbz5sr7aV8HB+pwnV7lO8aZzvGvROG8ji1OsKrysgNcHmJV1VekR4BoYLnz6wzo7OXsC4BxBfZQzykJSxmevSMksowvnlx+HeilpQLj0LafRm1nEoDoCUReC8V9BJs2rbQkJOZeHdFRJ0AKLayoqIh06tTpPUPT5jia3i3VPa7hA2IOQkou1FkYbo4IkJ7hvduo56tP0LB7ZtLQF2+l4wo/JL0G3gwAogdGrxCkGTx4xJuPJ4DZjDcPSzwba54sBdlVLzUkDUVY/GbpR6VlpbR582Za9cUX3rwV88gL8vLyTNu2lkGFZVAzIL8xIVgVrYGetoE9bXD2mzdnTuvhhHsLb9qxY1jaaqeNmrYhflGy3GJ43WAdb5WAIT0Z1/DKaZyH8ybTmAbTYppMG+KmRfU5WZZ0usp7BkEbvWeqS2j8Bp0d9ks7wl45LquqmDs6rv1m+x3TE+b5xovVxUpIx5BQLou6EVCCdMRHqb3yPVtcq+xy0rHO6EnSupJN39wUyS5Br/4n1nxJhbsCTJgM8Aou0Sggef4UiUQ6wahycXl5+arOnTsXh8PhV9Bbp8HymYm4hE8qCKYG7vT1QryGArc9TdpITO08ztdLRZxN2etWIhKHWrnwY/WMRE2ovwzKl+8jsWyR9HY2NyDV2NfU9lTX1ND2HTvo89p5auG2QopAzWVrLlRU9oH1dGJV1X40bty44GmnnQZL1Tcn8A4MrDH+hfslfGLGzSp0bm3p6aZtjB+vBvVT4LyBVSW1xAKXlKB25+X7ZN0cRFjRv2FilY+1RP4ZDwceRxHHaZwnmcBlmQbTArVSePtIroPrSuZp6orllFu57fwMTrX9F36mpvKmxmOFs1TUGnV0nJdTbUXvSk1v7j5SFu0L480AVlcPfzCHrFVdFVZdAUrHiQ80ivv3bI5WappQrLtD2G7KNsuEhJQlnH4EILEOd39ubm4JJMYBzLueg9QZCYskYT7miedUosl7qHdwonGoqKjI27mRjPeukXIK3rKA1BO+Vy+64RcbXiItBgbli78XyisPwBOAJ0NHBgZhoj027du7j9asWUOffvop5WOeegjWWw5ZWVn8LBi5aQEk4fD9+/fnjBkz5ruchmsiE3/5hoVFg42ncYjUU8EcwEQQPGDsl3lJoanHhJY2Sbo41FjQQbixzYK0qwLfBloRa0ayzPy8nFIrUn0udnusDB6nYdtG4sP3HMdpnCeZn8syDaaF+dxMRRFFXh2oK5mn4ZXbyG1FO27mtvMzLBpmPN0wX1PfXRkr4d2GAkiO25Xvt986692m8jaMh+R7PIA1miwsc7QDmDt4H4PaQ1R3gLdOByWAa4Dai5BiOfZjDcs39f2OWLu3IVs/V9EJ2c4GUHrzNG3FihXXZmdmX9y3f98/tW/f/imAcExZWWm2ZfXiedUR9LjD89zLxvIEL0scgjEmqSLyuiHcjqlb9+5QD2DTrQ0SkjJ406MUv/MKaa/5kBcZk0l1V87O/ugK6yPsENB7OCwJWIbdv9mbP9Zl5BMGXn+MlFg1uZN/hUIYuWoD1E0qKCjA4BHzVFZuP0vAzMxM71mgzr6DuPlQWd8744wzduNZ6tSoJI1v+pXX7+AYgKUDbboaViZSTcbOmdvldapJL3QbRKVz0d+ZB3PyZWbckOfyT2BW2m8AzC9ho/HbANxE/DBXz1oXXTzv+MwizrsoL5PXGU9jZwCpybN5nHci8s0Fg7RXOT0ZUKazNLSrsblcxfLI24uGBF7CuuRFRrb+E9vUzkGd9z+clzi5fC5WN/ZtoQ6OSv8F97ffayElA86eFCtxFi4YqNUNCEnazV3R24pgXkSrXDcm7V83l7dhmiXkH1yr6l4H5XntEfDBXjR0HAdGLhhmHCdA1RTDfTWEUZ3i0JBM49+lvA6n3y1HP2TN+gD7LGi4HxSpipyMaw5KPQVDyAqA8sQkoDgvd2r+XlVVReXlZVRWWk7VMORwHEsjtkrakF4qgLdrzx7YcHTPWFJvHsdrjjfPE3LuNHLWfoSaYbDhAKd03jOpdOqKgyFPIfmtcSQHjyLKySXx0YskFl5fe8RHIrv3V4d0xAkDHo0UQDIQI5GoJ6WhYjMoCwHAN/FMr0IqLjv11FPTUnFSavpG3i4YaMyAG9p7Mq7cYmQrfaBxPYqJ1g27CtzXZ2y1lrh79rxbZVBn1ZGn8JYhKfT7mRF2XPupYsjT8SqAgXErcBOifpHKoPkJANYDYWq6EwjcFAhDwlbJKNPiNKaNcfMncCY/tcpQOk9bvt3Wevc5bVeBM0kJKucCvP2x7ojXF8gd6G+34jiQhak007nH3HEfvwfBkfbBIqf6s3TKJPNkb79uSfK+ra8BO/PjuF5dDIDlQqzwoEY4rd95kQGH5YHBvGaHuJfYSllWVuapoRWYL27ZstlT+9auXUv79x9APLxzkAeSpxSA/dyuitx+/B9nuwosoFhcp0KsKcIQdKSKC6kWuuNZUoef7D2b0rWX5+WT8dg/KeMZHOXxs3sAyvE4ZCkDo3IprTaxVQvn8BwRUI8cPsbzfU2m8QS5CsYcfhYEeBKLHlA/+48dO/aK8ePHv3LSSSf5YEwyC9eF/bWF2ZoYhkOMb3FiMoa1vf5g3s+xvveq6NFzOxy5XtYCisBaYv6iQWI1F316hDgIi8gMTP1JC2tXw2H8nBSSzd5yXi7DZZmGRwu3TJvr4LqwMviS6NFjO9TZ17gt3CanRsa4jdxWbnOzlTSRCCfRg6QYWOowbxxYcHW8iWxfefRcbDhTKP7bEOaRupD7uQECBpyOwWCwuEePHpSh68d36NJl/bJly7DLhmfOjqeeckbu6JB8DtS9cnT2PweFePCU8eMLOE3OJeXg6iHFVe06dyiYeSfxGiMHgJyGDRvm3df7w9LR88ABeBpYYLmeffv2067du6n3pjep++q/w+IKNTU1VFeS/M0Skl361cUycNetW0twg2PJve+ss87qXpfo3zTLgWmrZDsl057T9PYrpRDg+BT7I9dC98f5qdh+pWH7lcXbrxRsv6L0t1/Z2H7ltLT9SmL7ldzRFtuv+MHLBzwyNawYDxlbZuY2y4ivKfEmPY69a7FL7orn/EOD9DiERfFtBdu29TdU9Vq0aQaAx3rt+HB2NkWjURMq7DP4Ph+dPf/MM8+M4P7wBBEFxFxy91zoPplZsu+aPn+9mwovuZG0mohnCGLvm+6YU/bs2bNuXtdwqYStqyxZYVyh3QAiT+w67/2Cuq156UgwMtMy25PsA6McTidIBhOqLyzDnroMUH+RjPevLXNg0YmClwDuwAble2s3KE/ELovbWZqpIVXDBuVBsIkMckzlx8kNyvCuYbfGHrBpvBvgDcrhHLbFYl9zwvAAM4VQQzgnC+O4dAPeBmUbZRA9CG52i3lxH146+I4xOQKVBhuU+cQArOH/L6zvSyrjBjYoY2bbBgHzsjLLMdN2hmiDKltHQpgPhJTEOUKePgjAPQ6Dx13Q86aD0gxIGOj18hkYaz6A8WNTOtS7U/Q3RSLrmoxta6j/M7dR4Y//l1QABuClPZhXHjhwgHIA8OycHAqHQxCQmPhjDsoGIVaLI9GoZyjiXSG9Vv2duq96kVw24DQMoEd9R+KH9FRTL5Xr4MV9PIdXH65Hpdo0rOo/7XvtDv3107aYJwWAMpwHs8mqsi5zY0p/7EgYDTZ7R3iAL7VHeOCYtrjNmkh31UBXwpo9zLcJQxlsf7CekgOnZw4wIrmKLvG2LDfgmE4xTgwsFK74HP4e7zmOu00ztKdwYv0Qq8bZt2hgYL1XqK3+ONaBOLlPthW5tqYjFG0+dn14nd0DJMD4NxhnzgQI34IKG8S8q9UTWbF0XzVOEF9ja/qI8K5NNOTBK2nn1BsoBj9XnlsC5FQG4B2CZRb11D0Tz/0EDEMS4AuWF1PPJX+gTjVbyWHzXmMBBiA5bHQ96chA5CUXBiaH/g/M4bmwH46eA2exdITNfGOVvXXN4sF5sKDRc0lyqYdcYa1xEtvVIP0exIr5JgDSMzVKIWH1U4YAqFd5G8ljzlKcwXO9Yqql8/PqH3I1JT/fyDIGb3RtdQgqPQv1LErW1RbXzMKr1rUFnS+Lxu2x0M4kbQ+QUEMLEQFz9bGFatd9NlNTRsAlhNTqCA185FoqO+ksKhrzA7LhzwroYVtOrWSrxSQv2AZK9lPXZc9QeNs67yQBtyvAWE8pTmlXDBvAsSfSczSoBeDevXs97xsGpgpHdlFVxc7i/7IjYsrT/Eve4nfKwx5JHMXibH1+2DArMcwdbuojvUUZvpXhaMcrAmpoIEbCYRpOLXfKam5b+K0sbx13+heRTmr7jOUw0mJlSm6Im/ErnhmW4RkuDlNK3HEd2Oe4FZseWA3Oa5j+VX4v6XBVdkC3fw7nVxNuDeilKR0Rt5Ar3seBj5Lt6thHgiVAHKXn4GpCf48rWXh5QDam1iEjK9z+wRFFrTt02QNkWz1wdLtxf2iAfVeSHh/TkZ3/IeWsfQ8ugHijUKfuFD+um+fQYVQWk3EI1mgAl9Pwo5ID6yq7wbNHUqPuyixZYYKj7gMxJCdUITbmsErMYHR1g7r8Yx6OvtYhQv1wNBzAa8xzbMXtDFY7WLTHWTrcKRsPDDCsTV6lZWgvurbIU3JCj2IHxqWc28E9luLz4DxeiRe0XtUUGDkv1zFzi4klKpgPFKUzt6Etz2blOtINih67OkPLvM3BiV7okaTwsg/3OwgO74I/fKgx76aErgbRA3dNnjxjMFHgXw41HIMKXEaxo6M0Vsm8q8NDOm1oU0Dm5eebBwYMfg2tOD91VJUADZ6I9IO7ySja6bVLsnTDPJBV1YYBr9KmAOwB3lAEiejNFyEV3e9NJhoEhxpYfzkwCFevqrXfgFGB8oOUte59CoTDx/Fr0Lu8ufaw1adhJf73RjlgZsTaa3oQ58Kze4bieY80mrE2kk8kx+sCrtNC6hPYFDXZcjtt598e3yejn7Kx5rqWTi1nUli2PwQbDw7UUgxuA6I8305O+6qCpLmKKfdfErFgZULjFfQp1uDY9Zv7L8+JsanbA6YDUFpwDnAkTsyDjdPb3IVseAAAFCtyALLuZv8Yue8BRFPEbPNP06aA5Kos252fqavn82sGjggAIU7yOSK6LoKHIBySZcGpLdAHL9EadirJvDFE/WDECbeDOQ5ePFgD5R+cWcTnvJreOa8YteBK1+upueQGwzAYwS9DreYf1QdkHXPTu4Erdhh9ilns4NzUtPjH7+6YsdUJqEHlIUVVr+Ga4KXGFtMr03mvB+f36oLgQcUCx1m00uWFKRx7iHQsGKhJYxjczwFGlojoZR4oubcl7vnC8BJoKQM24RqOHZGwaKnw5NGwNQur9LhaOAjLPP7DTkv6UTEVpNu6Ngdkj7DxyiEcjtvqwCNSr0HYZPwDUk+dQG57LBnxskbtWTqEZRTPaAOwYSnG26mRNA65MAD1fuF+MkoPYDM2XJvAMFdzu6INe1rdjv/0AlBYuA+yAgNIpc2NSFBZkGU6k9FDT+dC0lSWcVzaBGozct3wOflaAt7b+IAiWNZh3yQmiwy3JDBZcWdJyUeW8mDDzsAsWlhpxfGzEAK86dlGnIWPiQ+mYdh7GYvH7ke2C9J9oMNrB+mWaCGfWJxv4nHmtZCtkWQ84MATSD/nEvwicCKv4vNtIQ2xPskfHqPKSsu8EwVw7k1i9GIWQeUdNP9GyixY7YHR60foSWBR+r2pkdb8p0YploETq71/eM+ulpkOH/DC1lCm6czD7zQWL9fBZmbsXVVoLMdxWjo04HiQiVphCIBt1jriJY7pkDimPMVZUwbDd/TsOKxZeC8mTBkQKjA185Yt78Q6SDwc+QEg4uPNIHmemDjnFUqqd5+8YnUHL0ZBfllDYalPeDvnuf7pNq7NJSRXjP29D4R0OQv7tNNtB4YcvPNj5Wu0+rQfUrCqHF8TYwUvl3heQ2zeQmDASfb0wSf3g5ep48oXeUTHr6hQNiy4Nbb83W43cudJWIbxCvh/WsWBynI6mKk5VTi0uD0mSP1aKlz3SnMcnMyzkcQrzeHjnKHdrTjqj7Jyu52IPC2+0pzrwg49Azs5DkbLgwdbqret0xUd6wJ2zSq8M3ikjaPqWPvCyYwJCen1Y8wlE12wrmp+YxaDEE8LoAKcyMDfVQBSh7RkIjEZXY0RqpENwXVk6t3UCpR6ccf8JX9KntEhjnfpsmdyawLUVhPrlhXDR1NkwEiKw8Hc26gMsCpY7DLg0hHasYlyNn5M4e352PHBrx8wqB2AWGW7y7Ak/dPOr24pbE2Vft4jOTB9c/wlPcuYhBffvBGpERMbO9Ifb0wO5Vg0AYdHPYSdGJ1tU1ZJ2/l/Cwbo9zDFGQXWDUJTfwvn8Aynht+mpVxZodOrixs57Pi817YGug7uuwSGoLPtiP3SgsH6949s1VcSI4ozJ4/ThTs/KGXfKkg5FcBUAEzMcb2r5/0AQc4nkngfgBHbJgDDIAw6fDXwDR5uQi+sCWTPPL78qhWtaXnrANMKynsvGHgX1pR+1RohmSTvvaoOxprM3tBisBQiIf0oWkVWEbx5MJl2cb4OW2nhj8xM2mPZ4pqur2z+W7K8fz02DkzbbJ0WOk5716yENoK3AC/orz6aShFW1UlQT3+Fn2WUniUUEzsxcMDpT+YP0t9NzTdzizWGDPVJI1P0sSKYlbn0Ef7eDUPPy6n5ZmxzZgOwjxjZOM2wxB6zaLD+Xmr613FfEZxwC3bz/1KRTnsT6ivbuXhiDT3emzdKzBsTgMQp/AAhr0WqlEGWYpTiPMf7e1XfcdvRtPtLA+S2M/vlZIb1EotbfZQh1B7vRArgvR3lOLodByqDH17gC05Ot6ERPNZ5yZYrj5K8X6wZDkwvsJ/Tw+rF0McIrxNYhl74DkbB7phJnKdlqD0dGLzhe4o9ufLliC4ua0zyMXmWpFmmfAqvpJuE6ZiuYkaJdcndUIZw+pnci34+Fq8ROB09HqfUOX9dOED7YTPN+kqTDnaakhmMRO4LYXM2XjwOf2tYU71OyF26FpCYLOOVxIBjBlWp+hNWVtY1XYruTcs63djDfGmAlHNJ2f/54CLYqjo2VnE6cXh+zyEnNW8IRyGbjvwExz6ckbs4H4uUfvgyODDnoMzEevB8LPZODUBysVM5vwYAQCLsZ4ygF76Lc1IfXThIeyWd+qdvsS9QVGU2gDcG+ykhV/HbwgGEnczjkMQwFDxvZKgzH85NbFBOh+ZXlacifO53hOPehUaPx2lNEAwJKSmwBhmCdMRZGsssRf+fnOo/f3qsbfrSAMkN23PhoJugVt6OY2qPtZ2QiCAhRQXmpRd0W7pl5TET9Am0yAF4zOiyvTXSFeo0vO1qDo43/QAi4iG8w+UjZXBwz+NCAFLph8ul1N3NsR5OIDhKdeWVwhA4r8d5GEsLi0SZvhreOa2il37NbZOzMjxhYsh15sHk04nnkpowinFOwMzs6heWtk0NCaNlW9E6gs5cSMk5qwdZeJEIw8kLh6HJqzz1A1tLGwbP+RyRePn7rd1f3vTbhun+d58DXyUHWI0NR6tnYfXRjWYGF+QWL25TLe1LlZDMqIOTBt0JCdkbC6m8ggqFU8BwJeGa5bns6JgZavjOuMNiIxRy3pfFq61Y3ICRFucs0SEcdDu196u72KHZDz4HfA74HPA54HPA54DPAZ8DPgd8Dvgc8Dngc8DngM8BnwM+B3wO+BzwOeBzwOeAzwGfAz4HfA74HPA54HPA54DPAZ8DPgd8Dvgc8Dngc8DngM8BnwM+B3wO+BzwOfAlcOD/AzZnf61y4mmgAAAAAElFTkSuQmCC;fontFamily=Tahoma;" vertex="1" parent="1">
          <mxGeometry x="440" y="410" width="228" height="72" as="geometry" />
        </mxCell>
        <mxCell id="qn5EBnbspL_nzVi48WmT-2" value="" style="strokeWidth=2;html=1;shape=mxgraph.flowchart.annotation_2;align=left;labelPosition=right;pointerEvents=1;rotation=-90;fillColor=#ffe6cc;strokeColor=#d79b00;fontFamily=Tahoma;" vertex="1" parent="1">
          <mxGeometry x="546.5" y="255" width="15" height="210" as="geometry" />
        </mxCell>
        <mxCell id="qn5EBnbspL_nzVi48WmT-3" value="Any source format" style="text;html=1;strokeColor=none;fillColor=none;align=center;verticalAlign=middle;whiteSpace=wrap;rounded=0;fontColor=#FF8000;fontFamily=Tahoma;" vertex="1" parent="1">
          <mxGeometry x="484" y="367.5" width="140" height="30" as="geometry" />
        </mxCell>
        <mxCell id="qn5EBnbspL_nzVi48WmT-4" value="Web Components" style="text;html=1;strokeColor=none;fillColor=none;align=center;verticalAlign=middle;whiteSpace=wrap;rounded=0;fontColor=#FF8000;fontFamily=Tahoma;" vertex="1" parent="1">
          <mxGeometry x="400" y="490" width="140" height="30" as="geometry" />
        </mxCell>
        <mxCell id="qn5EBnbspL_nzVi48WmT-6" value="" style="shape=image;verticalLabelPosition=bottom;labelBackgroundColor=default;verticalAlign=top;aspect=fixed;imageAspect=0;image=data:image/png,iVBORw0KGgoAAAANSUhEUgAAAE8AAABPCAYAAACqNJiGAAAAAXNSR0IArs4c6QAAAIRlWElmTU0AKgAAAAgABQESAAMAAAABAAEAAAEaAAUAAAABAAAASgEbAAUAAAABAAAAUgEoAAMAAAABAAIAAIdpAAQAAAABAAAAWgAAAAAAAABIAAAAAQAAAEgAAAABAAOgAQADAAAAAQABAACgAgAEAAAAAQAAAE+gAwAEAAAAAQAAAE8AAAAA8bmLtwAAAAlwSFlzAAALEwAACxMBAJqcGAAAGX9JREFUeAHtXAdcFNfWvzOzfZdd2lIFBESRIiggWGKJUaOmqBGiiUl8vqfmmZdinjWWrC0xUaMplugXjYlJDFi/GBWNPTZEwIIgSIdF6bDA9pnv3MXFAZEd8yn6+8WbH5k7c885c+9/zz3l3jsi9LQ8ReApAk8R+PsgQDypQ83b+oE9z97pg/LqsnW9Jn9d/iT2k/ckdgr3iZE6/EAQ5Iv2dsoIuH3xSeznE6d5TLxKkEegdSRF1tE0E0nSRDKiGAe1ueadvnFrtE8SiE8UeEW7l53UGfS/KkjqB5c4Vb0VqMzvZtsJZKI3SR4/Nsl8ZUhcXILZ2va3vR6fpHTDg89LWDqnMGHJmqyfVH7tgVG4T+VRvGfZ6pxfF6sw3ampzu7t0T/qtsemecW7l6zm8fkfNmq1mQ58hz4OY2bUsAebPCeiP0Xwiw203jn689RkdltR/BdiA1OTLJOKgwwm8wqv0Qvmsds7qk521IvueQ9BNDTqDEaKMX7BBu68Klqe+tmo+d6hMaerS286+fUafPHKipELMmf3s7PK8Ir7UEua9JswP21mdNbnf5srgxCBNYg94OQ54SuLD3+rr0w9wFTuX84ci5VEVCauZvB9ceI3upRZoYvZ9Jgfy2E/68j6Y3sxe5Bn/9t9tHt07BqHbjGdTQxMBoZBREkKurxteWTYv5YmMy5BABGJeIQZVWWezas4kzC991c3DrFlPI76Y43zzrzfNUoZPmyrR9TLwXozjUw0DRiALrVVGGhnCKQIHODrEvzMwRshe66XXTvx5jNfZV5qi7wjnj0W8M6/26OTzNv/P979X5ljECuRzmjiPFaGNiMdYOzUe0yQW2BU8lWf/cs12ekb+m7MKuEs5CERdjh4F+b0+s73pVmTSakDMsD0RKBRf6kAn9HOA7k/O22+S3TV/CTZivW9V1155y/J+otMD8XbZm+b2/O3F5GkvT4kf9R31M2f5pZ1iVNNJiUOFrvWHj33NgZRUkfkP37ZdJCvPj8vemR7vFk/zfXL2DazT3s0XNtagFcUr3Lkymily/j+vxFuni4pUVM+TbM+Y18TX0GBOdtnqrvFzdvvEPKskiH50Hwfu8ZitFJg5bRdGMRQfATy3UPiPvr95vaZ+adfE/m1xSeRyI56eXqczdoyo832tnjws/jYWKpw18IodnszeMU7FoZJ5dLKkj3LvmYTtFfP2bEwSiS1e6+uvjFdIuSfZdMmzR/glb52wsbeH27LUIQOc9czPJihXLIqApEQAzRo6usMenNtQ72mjrCAbTswsNhDJED2ocN8gqd+nXP9ywnr0ub38WT3y04i+LNa05jGlzssLdypimS3tVePHt8jSSSUJpXGz1Na6Zp7lAmpj8BAFFEkUWPmyYN8X/6gDBrb/N0tyTtC64UC3hbP0QtagAYcRKpq4Bb3Aa9N4jl1fmCbZtRUMqWHv/3VaKxfwRPLN+g0dRPkCvnnzoOnxPJlTs39tQ6g3SuEN8aKPKQ+uvXbiE8vvN2a9mb8pxF8yjSLNEv/gQPv1u34nmFUZF4C73VEmOcjgvDwG7dIbqVr0ZmyeJVMGadqyIlXTeGRZGxxTv7Y/nO2aKzE+JoXv/hVEDmGRqJp/nFza9lt52eHDVaGPPezQ4+hbjS3+dbMTpn1qDTl0E1twdU3hDL712WB/f8tUCgpQ1WpqTH7tKqmXnPEyS9ih0v4c75mUtjMZ7uCNZlBVZcTS8uv/vFan1XXTrB5srer5JQQfQWR0qmAV1Vb2G052+eEIr7wG4LPe89v7KLLTHw8RcTFNU+fFuCxGXG96uDKWXWN2q4CHo8wGA3VBEkpCYNhnff4pRfZtOf/5TLUZejUlS4hA8L0EHVwm55NEkiKQhXJ+9U1l0+N5iukYxxChswWu3ehTAYjEGDFJ6D/AtRQktVQlfr7YmQ0HpOHDjmgjHzBxWTENNwK9B0JKYTKr51MLU1cN6Pv1pqTbM7SvZ8E6Y3GDygeKWIYQkbTpgYBj3/QY/T8n9l07Hq74GHC7PglAxUSwYlGrb6hc+zHMjbz6Xc9w5yDRrzhGT7ov0aJK4DGPV6jGBPS1pQXV5779RBp5/ADX+K0VdEl0t9kbv5h2a+y1HkUiaoy/rxirK9+mzHq/6mMHvuCyMHNlSYAFY6FIHmI36BGRZdPr6hNP/Zz329yr7JZcxOWNIBdlJQVV/sET/uskN3Wum4TPMyQt3PxDpomlvvHLbK86LhqkEgplr7vMWjSCkakeCBNIwgCGerKmNtndmyrU2fNdvSPPOccPtzfDPOmSdNad7H1PYEoikAVKQeTFUXnBlS6hW927RP3ukDuAvapTRPdWoDlHmsiU1+O1Ke2z6VSCtcEJ6QbcENJ/NJuBpJ+3nfcx1+2ych62OxtWc/uqYIaX7MChxt5tWoPxBNMRmIMHNcgFw+aRGUXd6tLD65xzUo5MK+TT0CZzCfM30zjQXMdOIMwudQ7NLLOMaAx6+D+t8v+d5VrxcV9pVg+13UCBoJsSmIPfsA8oUxZJsDjwsUzbuENsBS3mu7a/z8n8EBEC4Q8gwbkmOo1e258+35E1cU92Xxhi8WRe95ICUSoKm1/SfrXU0LKLx2cLA8cnDVo2oZSvZ030uSnoZr048hYX2lJ/u9hZj3A2mKoLUPVV48B32VEuQejwQs3aCTBAy/fOr9zVMamf/eoSjuopvjNWLC471YFAHL5n7+cubo61oMUy5I9w8e0cIrw43CKd7mlZwRk5KwidumM7CPHzKlKP/6cvvj6rPx9K8Ide458S+oW4EtbSLEWgZcDzBtKs2sqU37/zFBdclQZNXKB3MN/PC1xQkb45RVdY5C+Wo30NaVIczMJCZWdkVDhhnhyJ/i57v5esBEEoN0GulvIAPR4iso6hyG+nRMyAJ3Up6dbgKN7Sl1Z0caKlL0vaG9lP+/YY9h8qWeg1KLUWKvBXGA7qym5cT3/3O6tYicvteeI9845BA/0qc48wxodzCxEcjLenDQP4vcWjgIvGdEAjX3IcxFeL3y4lyexH1+y5/PhYGwTDFXFDEnxkFlTRuf+unCb18j3HQiSCPcbMilJ1qX3eFqMU7MmYLBXFihckdy3FxK7BSAjaFV94RXUUHitiQYGjGk0+amoofi6pV3aKQjZ+UUgHuTGVpOBpyAjc0F2XaLe7jZ8agrFMPZeoz6Q5f3y0XaTppyheHykv51tyP5+ztryUxvH2XXqOtNz2NSfFEGDfNqyGCCvOZZrgWqrG06aB4rXdkwAIBogXHAdOCnQOeKlrJJjm7dc/2W5u4uX99f6mqq5pEQ4Mn/7TK3Ao7tIj435HdBa9cECgtitCxK7B6BGAMlQpUbVoGV8O0dwLuUIwjQkcvWzAIxlYLDaLKCFOrErcoiJnV2wrcs7t66dnF6wd/lSgVz5kbao6kNZ965b3QdMvE7wJchk1LcpAj+kzWaL87gvwZ0GTuCBw5C2KwiAoUATOr88d7Lb7ZzJN9dMd5H3G37Jrf94LzMMiLMXBDkS0CyJe1dUkXYIEZpqROu1yDnq5abX3w+01p0DOp5XuNTbK2zbrT9/PlefeXZi4LQNlZS9B1iD+wDPlkHxFOzb+9VtTlsmFlEEyfS9sWl6i6S4LYG4YxJHN2QkkISvcFE2lNxAjfCH7Q22ge0WTANTFE/ZanAg2MkInTohkidANddPwrRNvyPDthysmfi9DaU5eHq7GPm0WABazAW4/Pj5Y8BMjTg+qbOo3f5Co03wcl9VvSUTCWNEjm5/2BJmace+AgoBdk8EdkzmHWLxjgZwCvhZWwV7UW1pNsRu+5G5sQYcgityDHveMo2dIl6AFXiwofU1qPzCLnAYJSCn7aAYy9eV56O6rHMQyoTANO8CtHgVh1tRYTwIwfdyibCvzwuTX7LF1fZoWFyCmtq9DRL9K2aC+YH1mGMVHIvJAEtFg5FZp0G1N84gqWcwosR3/Y+pUYM0OUmIAKMusHNGMv9I0DYhYsxNZpYxm5CiW19k1jcgOseItLdzQQszkbxrb0QJ78oxN9ZBCpeB4z8kcvZBDLz3QYsKdP8NwjihoaZ+ZFV97R5b/DbB8/rXmioQMsqWIFvtlMgOybtEW0CphmmogDrsiiGR0geZjY3IMXAYIvl4ptxR3VYCKaEU2QcNsoCI+bTqLEvo4hD8LKrJOA2efzCSB0S34nrwW/9xyw4AF/6zWWxOW5sSHpAATyPH4MGo7uYFRIJdE4FdU0aOBuDwSknbwN19BTgmoQS59huPBI6dLN67Lucicuo1AuHwqKNLx7/RAhGAIJLBnx3SlhcCiBIw7NxSPWwfcTyoK88DPnETXzuLCY8S0A7XPPZgsBbJA3ojbUUB0t7KQbQl9rqPNwVvbNY3okZ1BjI1VANfjMU2suV1dP2xaF6LQUJsJ/MKsUQyWggtaKMWSb1CgYQ1hQG4uuwLSOjoCR60axM7Drofc3kk4NGw2kOb9ELLsg+nfQtAAbCARVBEG7RIX1UMIOoA1FBLakbBtJZ1Dm+yiw8AmiU0os189OCOl9PP8kimrVghFOsqCrfUZv6JzNo60CqOrwFgsMcVOnlBauaMKtMOgrZ1ggUDb0uwjHNqLgX/aKb6alR7/QTS16q3I4HYZsDLRW5rGo6jas3W/r2+Sq8T2CknkuAUKiHNwgEwDfaqKdNon9fSChkCX+aI+HIlxIRwOIojaFi+WauB7CITspRjiBTagXeWj0cG7SM5SfVIpi0GgCe1Z2TePRBeBalMOYD04BRErv6WuI4DfH+BhEENBVdhXbAKwQ4cUsaMBdBh9wxWVWA38pGURwZeU29hHxKmkFOvURDQqlF9XiqskuDVEtf7pmoPOkqcujWqbyBjYyWkcLUIVqaRoDscOG1eV3xQidzpHzF4TR0hSBKCYS8kcvC0JPjakuuQRVJI7OLHvaf3UOKQBjSruhQyFB0Sg1YrusApCrzAwHWa3yPzwR48EpvXZhfwgGBgOPeU+fYEEgI1FF1D+spi7rbQIhiDRiAdmAG8SICXZXHMJ+nUvem1HQQcfhkn8JjjqoenoTA4gYMHOAMnxIcl9/qCK6j8/G5kwl6ZQ8E2rez8TgD+KmzgyEGGq8UzPyxtU6lUpPo3VbuHlqzdtAne1c3v9yioJPW5OxdzW5KySrZ1BUXEHtWp5/NI7tcL1cE+Qk3GKcgimr8gaCEBbxDhdT2cEyu69UFO4SNbrKq0IP5/3LwRhC4a9GRD7q+qAbbE2NQoqcLRVS4VkRqtHof9D7ngqUwiIWwo8R3cLEvwVZcPg6cGUMNHwOSE/8A2VqUdRcaGCljOCkIKj67gbLD7xDEf/nu4BRb0RI5yCSotq9DakmxT8/ziPj5SrdF+5zN2oastYbid5PGQibKYA1iFvE+e2loQTGW8hmfnF4kcQp9DfNhPrUjeC2FHBaq4tA8WR7GGjgRPGnpncZMjaNh5wGkNggZrC16ZS/GN+zj4dnX92m4TV7Q4UtIWr03wMBNDMKVtMbOf4e1BGhY8i87uSqsVoVuG8vxZsHpMk3gAHAveKYOTUUjm19OS78KxCgA0CrYWw2GKSi0bRRxFWY6pGSqLDcbKWx+ZCUNpacqBfAa8Mj6xYKtAn20TgRBO4FEM2fbumbUXsHdRk/pbQfp3M7xMFXl7n5v6ZSM4g0EZJxZISo78zyqkw4epOPWnSSJootDZ27KMjrcmH2h6wrhpsI+FiRvnN8bH2/GdPCf2GL+yoi774oob382N0qQfu03YONtCEAwn78VJl+FdbW45UbCA2XjjFLqdvKuviaaILi/PyJR6BcFGM4ncBwe+pOgWU68+8t36rISlDi5hw/e5RI4agLcqH0kB0PigCmXJB/Zf37UrrlN00FrF5OmNEo8ACh9384/tvrEuJ6lcfWTdAEHGuUC/Aa/sQW4hsOd0b39oPI04FE7gwdZjA1sWDnobC6+Y9OWF08qvHtZ5DJz0hdzdN4YWO8E5EowzRF+wmyxy78YLeOOT9zTFmc9WXvp9w62jWz7mu3db7dA1qpclmGUL/Yt1PE4eY0TVOWnH9AWp801iu8iYeauS7by7B5kR/Op3thrxSSq7rv2VAa5+GfW38w9n7P0i1qX3K15iN/8vsFNiF5IhIBG3XTiCh1ocPyhJOnC+sjjrTc9eQ5cHxi2KpaUuTaBZgGO9FH5xPABJp+AQuUfAutIz8Zdz//hpqPPN8/8ROflMsfcNdm+azhwdAEs0Bp8PzklXlltUcDlxta6hPF7ZY2SiT5+xoSY4/Gi2iGwpF9tUAlJDub3nMJmDy7DSy4fXlh77IVrm32N9C9Gw08K+v1+dE3hEq4N3hvqamd37v5gljowD0KCDrUFr420mUoCUA94Ic+sXW1Z0ZHMKZAfdK/UNcxxDJbN4CndO/WCL1ZfnmWqKb8y3kzlsoJX+ZwMmfrrWTIngQ5eWgLF5rHW8I0c4+SLPIdM/kArFH5TnXQm2tuEriGjTTLFpcN3m3E5WvSghKPKzgp2LTwK9xer3WZt+pqQ4XaFOXHeNMkE4xM05WXqFj8R6Dv9PL9eBb1UYq/Jv6c786F6VevAWCYdwbDsVOKxDGyCM2ZehTkxwJDS3KVn48KpOI94JsRy15QAcHjSOLQl9LVInfnW2vCJXEbM6HZJtSyEKdi1OJkni85t7l3ndeXbfi00XmJuweCEEyUvqG+FsB0P26xzb8gD3pY+ie0g6h37pHj5skEkA52MeYAAY+MbqW9nqxPXrBe6h5/lCartjUH9/MzgcbIfqC6/Ckjws0YNmY9AqM86m6LXaaXTFzT6ez7/zvlDh4k/z4HgbB82/gw3i6avR7bQ/jtQXXpsZ8cmFK2xk4BDnBOj/NwIB35E2mrd7jVv0Bru9df2+4GXHfxIk5NMLzEbDPj2ik6TI8RbDa1gJBxHNJon97ICR7wGad0vSvKh/uESOWe8UGCXSG8FkcAURlBl/kFed+vuBlB/XT/fp13+CR9igT3lu3VFNTgqy9wtDmoJ0OE57Ylpd6oVEv9jpmx0iXhpqslgl21PU0kOYGSI+hSqzLtaXnd09NWpl8i93e44Q5LLOJgO1Ak5zZXmNWfA5bsuOVwWJ+LwvaDO9xWfcong2vbXeArzchKXD9BR1SUbrEuDrw02+saodVkLrNRbOrqx6dck3ZqPRUFV3e2bktE0tfH3Kov4TXGPG/SB068KDdMDKZvsKHpzUa5A6ad+JguRDEzp1i14K51UmmrSa9fTtnBWS4MG7XSNH9Dfz4ZQA130ReCvYa9iZyzKWn49/veeScwnsjuRtVYkoKf2NEZEl/nGqj9lt1nrWpunhIkeXjTRNzgDfN7nzK4umWNuawcvbuXQ0fDyyBxxAie+4RbCj3H7B322IjGQyhPJDfMaYbxCEqtnI4pWJsZK0HV5Dp8Ribwtq2L6wVq2QmZjVx7fOiFxy+uu0xc++q+z32lqhk6dN+9xCDGgbCSfFSo5t3RE6a88Edlty/ByFMyXpRRLkNsJkDveKU+FTEe2WvIQl5+EsdLTRbF7sH6tSYeLmDtU1io7QiD4PA/1nu1LuNAa+rFLnXaO94VPr0PydhLFoz/JTVj4Ajw6dvffVwoTloeo/Nh4UwAFsbKS5FoG9BxUQM/yrUxMlvXxjRnwFp6W4M8N7BCSDSo9s+i1n15LQ1sAV711+xktiX2OiCS/vsQu9uQCH+y3gk7Fw6HyxHYNWWcfRHCKEvTkLB8J9rA1croNVKtOFT8Ycdena0wRJUYv8F+Bi0Cdn4YgnGplUkj7Jud9rn7mEDnHR6cA72zTwDHx7SyCTHhEmy+/LQXMBNLFYjMrTDqtv/7lzZvTXmS3smnU8fIo8o9UbPWoKLh6wPuNyhS+dioBOxaZtnrbsh4+qnrpo4BT78GErYf1OYcuf3POl9307BctWcHRUk5tSXXUlcWYv1akt9yV9yA3NmveQ5bYprueSk5sROrn5yifPJ7k/+88ognVErE0GDg8ZXR0qOrz+Qs+PT8RwIH+oJB0KnrXnPT461DtllcRHzKNWu/af8ApNtf8pgpXv7hW0TVeDSs8k/GY2M9MBuOK7bR1Xeyzg4eH1mrm7AC7jkufkjrLv8dxvyh5DCCNOSNuzh2DX8MpJ+dWj+tqrx0dHrLj4WP+RhscGnlU/Ij+79DtCl8gry9PekQc+s1LuHylu64tJ/A1uXe5FTe31U3PDFhxukchbZf1trvib3fzdS8cmfzvVemjY4rxSlwxJqEj+3Vi5f1nTv6tyaBWD71NVz/7IBicd+G/+qhqd/dW7Qvbzjqw/Ns0rEwu+gXk6xUlqh9OhOfBniUd6Ljoae0GrcRKKJIkir67CogsHkvjM1hE9VektAlmpvn45IVXMlHTx3AC80zsSNOu7OjRUsb4UX3N+mR9JCcUrEE38DOnyWC1Djw9m/ctlgCRxXRXMD1Y1fY1o5cUpFSGnfoRvO05DEjHWaDDOCJiwNNXa3pHXxwYee5CD4FzQ5p/mzRZJZG56TfWyLm+uKmO343r61lluCoVilk7fWFNz/PvVkZvUja1pOvr+iQDPOuh0VaxAEhJyyGAyzZCoM7N0gcF8UWa6UecdGiggiLX8CvMIj2mqxw6atb9PFHjWTmEn4uToeRq8bjTsAl6oqip5pvXqjZX2cV65J9wd2EsMFNjBFDdHOaw+ma4+icB1IBx/7VVnZ/R50NTjr73oKddTBJ4i8BSBpwjYROD/ADz6J/4sqS7CAAAAAElFTkSuQmCC;fontFamily=Tahoma;" vertex="1" parent="1">
          <mxGeometry x="450" y="310" width="40" height="40" as="geometry" />
        </mxCell>
        <mxCell id="qn5EBnbspL_nzVi48WmT-7" value="" style="shape=image;verticalLabelPosition=bottom;labelBackgroundColor=default;verticalAlign=top;aspect=fixed;imageAspect=0;image=data:image/png,iVBORw0KGgoAAAANSUhEUgAAAFIAAABSCAYAAADHLIObAAAAAXNSR0IArs4c6QAAAIRlWElmTU0AKgAAAAgABQESAAMAAAABAAEAAAEaAAUAAAABAAAASgEbAAUAAAABAAAAUgEoAAMAAAABAAIAAIdpAAQAAAABAAAAWgAAAAAAAABIAAAAAQAAAEgAAAABAAOgAQADAAAAAQABAACgAgAEAAAAAQAAAFKgAwAEAAAAAQAAAFIAAAAAbCbi6wAAAAlwSFlzAAALEwAACxMBAJqcGAAAG+tJREFUeAHtXAdUVMfXv28bnV2KUkUEKwqIChbE3rCLYsMeE5P4t/cKiVGxoEZjLzHRWLA3iojYUWwIGKUoIEWkl2WBZXffd2d1cVmBfSQY/M5xPDjvzbtz353f3rllZnYBvpavCHxF4CsCXxH4f4uA8YYL5ka/XLL40gfA+dIFlLA1E2g2zUI5Nb9kWakvVTjB+kBr4LIOAU0bAAVcoOEtW8aenbOk74svUeYvDki9DYEtWBLxfIrLjclfPHCHMmj8zVemU6XirlKu5vqiJe6xys++XishgEB9z/cL3qPUVOWlYFPQVsHmq3OqfFhPjfWqkXp+V5qzxbLTwOXm0EAdl5YU3xau8qg0da2trTWTkqwlADfw72MhmstmUy449b8FiUQgpVmjipYPivtI8d9e1auzYUk4jSktnr20MDe8cPXIfSpDZ7do774Q3YxGU0NaQFH9k+MfB/+qoPkwtWP1fzo1m803tueIy0zwWb0BSbxhvZWC1NhbtEQysjArbYCSEDxbx94zxv56WjJ0xz5fPTNLmcDKqnz49gPbRm85QTex7/kd0nIV9FRGQj/CIy8lLkLRVh91vU7tTwds0rDvrDnRdkNGNGRxuUBRFNzc4ruKYlF63eYuWYzTGKRiMUSf98+4vnuzA4Aw61Me9dNSr1NbMWQuaLd3X7nJV2Bl3adBSzuQSdAcImiIpIJEXtPYRgB2GjfZ1KJth8y85MTg6+tWrhRBwaNKhPVwU99A8ux7jlnvMHLsfLO27WiibXIQ1QBBaIybtQATO/v+ug1N+0efObHl+e0zS7BbJYekhk2dPq43IJvYuW1ynjpjjnk7Fy6ZwghiZfVjMExpuRjMHNqCqb3jfLvHHj/e37Nta8rrh8sZdK1zkv8cSH2dRv07TZ+5G+1gExaHA7RM9q8HRT6IRi6dNC3aHV32/MJpz/D9O74TlmaE/WvGtWBQJ0DqLv29B8fYbFRZwqP1JXtWplX1/gYGzd0cvSbOtXLu4mHQxEY+hesCRMW7CC+KxQIHT6+mlu07XU++f/v005NHtuXlvbqroFGudZf/2YZjbLpYkpN1QLjW65bys39yXSn84a+/7Ak+Ybq1ZcRuYPEjjmImx8BMOYxRsGE3c+q7e+SBI7ccRo334DeyYmQH33f+MNsxWlcwU1fLJOWA4RK0HTtx1Oh9R+80bddvK/b5RGG4hqZDMX+fyBUYj1fHU/W5YENQT/76SxuV2ysEFGwIHEpp61ygy0re5gvDLcHHR+2c468/24tiaU6D4twzoGfUiIq48UfeqQ0Fihe06TFqk+PoCd8a2Tbjs3ka7z2x4qGamsXhwotLZyE2LMgeZOUaLft7PGo5YDDIpLXwJ8T2lpVCdnxsftTZk7tjwvwr7Cd/6S4DSU7eMLaJVQboG44DUcnJQp9RAWrEIo8pwebgQkpLV1cmzrMtmDf4tbxRuSN/U2Aw3j9Gm2Mi4cmWCmcPrDJOa7AzTFdcKt4MNCupYGFfX2Ue5NrM0mGA46gJJ1sOGqpPwpXaTGGOhgZkxb6EiIM7ff++e+H3EUPXniqXigsvX/nJ06HX2AXtJ01faNy0OUjEZaqvrfaeTHlpeTnEnPPPf3H+7Oj09MgQVWLB+ivzgMtxlLHo+YXzB+SqPif3RBOBRWGOT90CirbMX9h/voKuQiMVDaTW3xJkyBKX75PRrDM0rXG1aHmfHIzrKNgRyNPPLuoBWtrjWFyWd/7CQcnK/RrbdXaydOy0ruXAYQP4lpbYBWNBhoU4DGFWJrwKDQm79/v2HV3cprg2s3ZZ4NRqAM5AgIhn5yAp7emq+zePRnf5ccE82249u+sYN6jlO1iQ/yYZXgRcuJzx/MmKxJjbUcrimW8OMxZJRJukwtxzehzBNZa+EZ1qmSrmx+paU1x6HC0r1ypYPnyFch/FdZVAKh7KAaWpsziSZvgnwbwXAz3oV7Cof6KC5kOtYdumR1Bv7/VkcJQ8mFYhqOmWzeXBnV83CtNfRHUszsv838RhW75vbt2JouUQKvek4NmLYPrklZXLBMYWIWZtHG91nbtYR1rGXDvfc8MPLTuTDl6xIPRNfLg7tlWyFzrbLphwJRqBqHnN8Vk5CrI5r3GBL4weLVWWRvm6RiAVhGgT0ihtPfPSI+ssS8IvK3tlTSf3ycua9e43Az2liXzgtdBCwj8+NDgjPeqpT3Z0jJZ7z7ljWzXt1lGDpw0yWdUys1gcEJUWwIuEWzcCr205aeriBA2bO/q27D+Ij0ZYIbL6GmcAmQVvIu5lvL4RuudJwOEN2KlU0VF/3s6mbFuHeFokfJW/2L2por26miGQV7oBzf4mf9GAyQpGTVr3GtK8b7+LDp7j5flvbaYxcSTv/o6mI48fOZLw4Pbqrl3Hn/Ic4O0so6XVAqh4r6JmI6Bl5SVwPnTDtYehB7xs+wzdgrJ4NWzVBqOCcgWZ2pqASeSJOn1MEht4eWhy3F3UxPdFsDnocv6DwmFwqnpNVNBWCn8Ujaq1TMZ9i2quZIDNtctEIhPtBg2LyktKamWnyoqF9IMDO2POfj/VMvt14m/WNo5JFg1bOEukaDWq0UJVeci9VCYBNosNZka2fRo2bx+b/vKZz5l5P1hEHNrzd1lxMWPVJAogFgmBo62TJyrKLdbXtzRUvA91VsgEREL/SXylYKJc02w0EzRbrGiz6+yyoXFXt8HnVnzfuYVz77YtBg472ryvu1wzFTSqNUdTE+7v2fHm0amjbiWSLLPJXrueO7ToK0hMeQwxL8JAVJQHpbQIBvWYD1JpzRrFZnPhYuhG0OMZQnp2HIzot0xg1qB5fETUuQz/wwu6xAZcZrUaMvQGpqCWJH+vrhCZos4cL024Fjww7dkTyWDfbeefnjh6oDAyleTt6A6Atpznr5W6dXRJdTwU7YyA5NIUR0pTFaOjcfI4jplozTe3islLeu13zffnoYVpqSMt2jl7mdk7ckioQYo87MCBZDx/lv7gwK7tZe/yrg0dtGiNTaP2k5o0cqLLy8ugdbOeYGlmB1F/h0BpkQhuhv8BFmYtoblNFygvrzBZcn4cDg9iX9+DpDdPQZutDxSHBR7uK0CDpyOfFX1cZ5hamNq9zsx6te38iZ8HpT19PNjJa/IcC8cODVlsNtK8D41Japr25FHJq5vXDiXeDg128po+reusRRPMHJ0g8sSfFY4HvaawjN+ALX+5mv8YTW2plNZWNeQyBMjMsS20GTl6wchf915Mffow+8yPk1qErf8pVlxcjChSkPniheTklDG7T84ba8EDDZfpU/c96tFxyiRLUzsEqUxun2U4OD2dBtDVZQIM6DULNSwW0lNfwpFzC6FYlEc+Dvm/gqJ3cMh/JmS+TYDMvNfQ0206dOs4CXhc7QrTQoBvauUMXZ0nzP1+2tFn7DK6wakF402OTxx1EINyCbGHJQX5dMDi2XdOzJ3auDA91WT4toMX7T1GTzC0sa0y4xJxC3XUYCh/zEgjaZmUYrPZoqoYype0WrSCQeu3LcD47JvHRw5MKcrKEmry9X3excdM4vA43SeN31Po4jBSj6JY1dpBhbZ4uvtAyttoyC1KhaeRl0FTVx/E6FRkYgnoahmBtU176NxxLIqCMUI1llCG9tPGsj3Mmnh07u2HR6deC98/JdjPZ62xuc2fwoy0ObS4vP2Q5etTbHv10yCzhpZWHSEATYmAEYwMbSSby8X8jqo+ZcQRkeli7zFG0HqIx/mY86diQnassO/SZVrqt2P2WpSJi+XOQVWrq/pgiNY0tmgLto1d4Pw1X8hMSQRNTX3Q5RvB2GHrUJOZOjdM0PGD69l5Gr+363fn9h6bHvU47ITjgAV+b1oP9WhEZJFVB6BCMLlnYOnj7TtFU3U1o6mN77TGPM+oOiaKdqKdqLpg2sbRhLTZWnc0vxy2GXLyU/COUaSFnpgD+YUZEHJ7D0hEpXI7WC4tg3dv4+FOxBEoFGYDcTbqC8kLaMjNT4dLoZvAoWUfc9LHpJWdDs4w9SC+f4EesNhqY0hCqh5ITA1piuUHmjoLkZ7RsRFa9n7OGQkaQa/O34KujjEcu7QESsvQdtZQSPjz18XFEB1zFZLTnkF318kwov8qGN5/Kbi6jIe41/fhSeQlOHl5RYVdrI5dfuFbwAwI7a8hDOg2C/R1GspJGce7TdqYUBra01jAPogvU6sF6oHEqUaXimJkhbmPUZLKbrS6Uai0c1CDJgzdCKkZMZgzn0Wbh5qG005RiDd++jwAQm7uBj1NY+Bpa8MkDz8w0CdKRGwhDRamrXBqrwUuhiwaLB2k3QXRcaG4zoBW50NhYVxZUloE4U/9UavfwvihvkAyoX9UEmPeyfKzrstKhNdR2Gqs8UfOTN5CF6wc0ftjl392RbxzM+vO8qkbEXUWAdAEu6bdIT75AbyMvw3aPD5weDxwd5sj99Ik4FbOtQmYHDYP3Fwmyh1W6L398Ba9+9nkJ9CmVW8gkUBM3HUEjg3dnCeCBGPR2gT4VY2qYNVIxuNmAmRV7/hHbcQzkwymXevB2J+G45dWgI2JE2qoCPp1/xF0NAVqB68I1nt3mY62Nw3C7h6E9JQX8Dj6MowdvEYOYLmktosY/2g4lTp9nF+Vmj//DYvigLP9MHj97gkIBGZgyLeopIHqJCAaatagKWho68DL1Hvg1mECZkQVsbS67nX+vN6AfG/7MBjXNYY+XWZA2P1D8OrNI/n0rcnDk/CIzeagSbgPNyP+gGG9l8jtJGMnUucQvmf4n07tqseAtg8dhmv7cXKncirIB1zbjUNta/Yh9vzYi4RGyelR8Cj6Inj0XwFgrfABivoj7X999Vk1kiR3TAtxDMSGjui7HHi4HnkyYPUHz054vP87fmUFCPTNYHjfpXJbShzYl1I+p0ayH0SeCjEysOxnJLBU60SUATHQN4WRGD9m5ryG+KT78hSxTfPeMNr95w9kzDWQaHFa5ku4G3niGnZmEskri8L4+nMCKWVTnD7BYTugZTM3aIWhjjameiSsUVeIvSO2sIGhNWYyWUACewGCS+wq00KyH2FxDsTEXsfVoiegydEhoUzFChZTPkzpPieQ4NzWgzI2aARXrm+FNynRYGBoBm7OE1A25lOehDtSWe3GT+LPq7d3QXlpKeQKU9GeroKU9Gjqzt39THGpNd1ntZHEhvH1TGHskF+gkWUbePs2Di6FbIasvCTgcBllm7UaEJenJU8tA0K3QVZWIjS2coRxQ3xBS1NP7shqxayWxJ9VI9/LgitDaKc62A8Fu2bd5VMt5MZuMG3YHFepiIOppcRVkMvwuEps0l14HhuKH1IytGrWDVo374lrlVpy2/xfhEafVSOVx0xsI1nJ7uAwFEYOWo25cDpogJbcU5P1w9p4eAVfYkdJpkTSQi1KG/KK3oLnIG9oi3vhJJ38tymi4j1M6v9AIyuLQbSDAOrhvhJiX92De6H+UFZSDF07TgDzhi3kwFbuUfUdAS/hTQQ8enoe8gvegnmn1uDcwUMeMinn6FX3rvtWRhppucVfy9znEm431F1hUWzUJBa0tHUDuxY9IPD6NlyD3AVkS5ZoU3WFrBSR1aPgm79B2J2D4GQ/CPj6JvI+hGddFr3NwS2NNlxuxYQnA42kKaE0OIVqqE8WdsnCe5VbDkxeVhUNAdOxZX9cGeoEkX8HwfHzy8DK0gE6OY2S2zhFH7LsRg4GhN87CRmZCdCmRU/AlW85TfjTkwqyuqy1Obr8F1JhQR5OEyN1S2kMgMT1SCooB0qEZL+3TkFUjJp4d+IYXBxHgJOdO5wJWgPnAtfiYq6XPJ4kIEbHXYP4hHDcIpXBGIwCSL5NymecxiJZcUEWJZNlohAKUautGQBJomDqf7hD1LFaLioP2Dyu3GTgBr56CVT6cjEsGjP4F8jOTYKQO3tAk6cLGlwdKJUIoXunKWBsYKXSQ/0tcUq4ySUfK4vHQ5mIWOrDBdwaWEtT1HMmxIxsJEglebgZUyMoRFhyJC85/A59b/ev5BBmg5C7e+b8nXALv9ilKXcC6of8nkKe1Rg1gameO3CJzRwEBqYYD66vNYhEk9lob5+9vCoOCPXD43hg8PTo7/szYp6hrOrjWJyLWsiimi3GyqNhBCTmeiLch/m4pl+ZB364NGTFxZafn/vDmoCf5zU2tG48csqhq5kaVsadd+734Pkd8lyZ8jZGWtt4rkwswpXvVnKHRLZka1PIAkhCckT5hgNDZu89NE6Pb9ds8JSDwbkcnkbrc7M8GgWuWrS7OCurxlUP1FkObtcUMnkvIyBxywI31+ETr032hEm5s8Mv4siMQXxZubjp2L2nkvH8oouBdRNwnb1o7OjNx4rzclPZ67dO0vUPWH2bhC3K+zVMhGRKQyYr4U+2GY5dXnl+y84BGsKcd6bjtp8Sus5a6GnQxBbc5i0ZNGLn+cTcV7Gii3Nmmkbs3/mKi4vDZBaoFvzgNTGMUG8DsCMTG4lbl1DIoj7uIKKwtASPFD87dzIk7uIZP761Tedx20/HNmzVuhEbT3YpNI8IZ+ncieu598hP2Qmxw8IP/nZ46/5RKxzs+nu7uUzo/Y83plRHjDaPbLAVl+STzbWzV+/t3NjA3LbjmK0nnzRsYdeWi5tp708N42IIfvimre05I/ccWZCdENfn4cHdhy7N/TbC0tl1i5PXFHtl1iygNKRAFSm3VXfNCEgWSyZBe1GxBCXKzxX+5TVymbauRqCFc5dbXWbO1VdswSpAVLyQnGLg6eiAuWO7dkPWbW93a6tvVND5LX3Cwg9Mb+8wfA6HwzFhIeA1zjEFsypqot0ku7kX6Z9+79FfqzRY2kG27boGuc5eaE80jRTVo9fknthzBNTRfZ2f492d25KeHDvcNTbo8mrcpaywIRgRcPAUOiPRGE3tIqGuEHd2K6Z24vObq7k6Wq7um/dGdv5hTgWIVYyzUhNPVxf6rPrFYfypc5lmdm2734280jY59Zl3NO7+kXXD2hayVPY4+oI0Jz91zv0Hx9pYt3X18th9OK3HUu8KENXx5GhqQfcFy6xH7vkjBVeaJK+ir/+i6EOzUCMp3N9lUBgBaaBTug1DAXfkV6GVqfH3h1xf5/1dQuhV4GpVYMzglRjV49nvft6+/YesWJ36Li2++Ld9I4z9A32ekENTTKY7AZAsThy7uCR03+EJfFFBtuHANVuy+nqv60V416YQzYwLDoDbfr7fpb1+OFOpLw93sydwKO1DSm3VXn5qYVVIjbaEWuCCw3M8dcCXiUsXFSzou1mFxLiTx/feVl27z7Bo64xAM7LNchbEXknF5ZBw/Wr8i6Bz894mxml5jfBdisf+2hvglgJZdIhLvAdGuKZJFneJ1r7LTYQ3qc9uH7+wdL2FTRtWi4HDd9j26N2EnENXHMRSka/KW2K/U588FCffu73nwZldPyNRjjIhf/mhZSwTm3W0uLQAne3gvIXud5Sfq17XCCR/w5XvKTZnpkxYMILSEzSWFuUbYNo0TyrMGVbkMz5bhRnVYdh3UZ1nzGpDpkttACV8aDRFd7ZvEiaF3zaXsmVDpo7a/pdNow6QgFsNhggkAZacrDh5YUl/St8ooqmjS4bb7EUatVgj/iAurhiVluDhf7/Ip8GH26kKauDrb0Vz+Hdk4hJPiuLEFZQ9KtLX6bIBcTcrWNhv/Acmn1SVgMTf2NHLXjKsiL/qxFKWwNC6PD97h3DNeBLZVxTB1jABXVo8mmKz3PHHOzzwgbIKcpq2c+9g4dRuU/uJ33RFK1/hwSsY1HBBtCT/TVJZ3LXAW3eO/PaDm9vUfrggsUtbkw8pKZFe4RF/RnSbsmRPs77ubnxzS56qY6uB9ftDr3i2/OmxP26mPH6yOPFZMDmC8zHYnrVdg29pex6/HHVYT0N8MXV+5VO6Oj7+phwWawoGQ20N6aIpubpWPQsX9g5UvLMCSO2tQWYaGvrptKgwG9/6Tf6CfhcVRFXVeuuuGbF50j14wOoqTvdP1vBNTR1+cPn2hw0tBw3Tk5SImAOKYJKjKwnXQyDmjP/G5IRnf4qFGYV2biNmt3IfttCmey+Q1OLrIPLsBu3gy8CLheH7di7Ifvf8gOp48AdJ8IAY7VRQ1Ggq+LSu/qw0dvxg6lIoXT5FlQi75M7rE074VQBp6BfcCNGOQ5cflS/UcAWfnup3qZCB/urjE/GLPZNREBdZXla/wrUT7hPGH4qxffdR2528pg42atpcT9HItObp6MKVRTN9MLvQGbxpxyKxqObTbJX44geCnx5mXC8LHh05cPnl3QvEkVR8vU9vxZEuHDPruzi7omTFRUsLvT0rtKsSH9UbHx+WQLfTKYxIu7Lz0jrkrp2WQkgqYo7cBf1TYHuAAHIjypl8D1HBv/DncUf0fz7dlqWj3xunphO2KwOZHX3z9Pic+ERtXQvTiF7LvFtrCQwUXdXW5ajJGgIjKf4UA12Odq02pTgzE276rXtYnJ7TPTU1/JPOdGG2OW1kCjJR0Q3GIBIB8Dua+QAjwdOfDaemVZiGCiDlQs4e+I9OH1FcTYy9pDcLOOKrVQ02Pf2xCNKhjdS7xL3lwOGL0Ib21DMzZ3rYsyqWVbaRA/eFb9MhPfLJteeXzm1Oeh4WXCUhNgq3zz1r4BfkpiGjI6ujqbFd5bs3lYGssWf1DwuWDSan5mu0qaQ3BruB5M9A38arx+IV+6xcumjjsWrm9rMaEYiTwlgaku/eLA5d5z2loCTtdDWkH5spSoZC3/nY8O+uGAXk/+4Vn/bOK3z917mV3+gErJx/KO9NUsX0+JSSWUtu4mtp4LK5u86umq7LCERmbGtFVS9AKiSMjwj85vfJw81CfJb9JS4WykMUxTN1NYWrPKX5+XDVZ+kfp6d5mMU9DlLOStR1r/PndTK1/51UwqyYW6cnZPwdE+A2b/GUBs1a9tVH+6n40pMqbzaGRgWpKfDuedS18D07DmRlvfgsGzaq71V3X68aKRdu7155/p6d/fLYuRXT+vlPHTsJv6BeJN/gICGMouA1CcAjjx8t8p86xvPimh/7VoDoE1bvClG3+5eKQTOs9dZcaKEtM37B6zWurOzasQekW2l5QVRCeMjGgoRkGx3jhg55yUk3WGyWBofLc73325bDD87uci2TFFVkW3zfywu1NOEC183zgjjsRKV8maEYdUKm9JHXCb9aMcHvgXfDNOYmXSoUyzhmFkULO6jm7zxTi/auuLbBTU95/EloJf9JiCJhPqWpy2ZJxa4YC9+rlQB1SFyvQMLeR1xBQc5EY03pX9llLARKephdJruas3JIWk1jJL+7W07xXDHsmUvr6AymhKIR+QlJR2DfjNodW6vpJbV8Vr9Aqgrr788WvNE/i7++l1WwdPB01cfknr/u0i6Ky7HKL9YczjSNrYpPXbd9WUB+GJ3BlhB7mUjoTeloB0gzM+4AW0JxDBr1wLZ+LE39n/IW9YmqayD+Lb8vEkjFoMivluI3+1+Skw6yEpFNFT9KoiD9WqtDQLAx8LVgY0CSOrr6fl7v8Zc6APIDNuBPxvRQR/b1+VcEviLwFYGvCHzBCPwf5/8giz17DDcAAAAASUVORK5CYII=;fontFamily=Tahoma;" vertex="1" parent="1">
          <mxGeometry x="521.5" y="310" width="40" height="40" as="geometry" />
        </mxCell>
        <mxCell id="qn5EBnbspL_nzVi48WmT-8" value="" style="shape=image;verticalLabelPosition=bottom;labelBackgroundColor=default;verticalAlign=top;aspect=fixed;imageAspect=0;image=data:image/png,iVBORw0KGgoAAAANSUhEUgAAAGIAAAAlCAYAAAC5+DzaAAAAAXNSR0IArs4c6QAAAIRlWElmTU0AKgAAAAgABQESAAMAAAABAAEAAAEaAAUAAAABAAAASgEbAAUAAAABAAAAUgEoAAMAAAABAAIAAIdpAAQAAAABAAAAWgAAAAAAAABIAAAAAQAAAEgAAAABAAOgAQADAAAAAQABAACgAgAEAAAAAQAAAGKgAwAEAAAAAQAAACUAAAAAHiZ1swAAAAlwSFlzAAALEwAACxMBAJqcGAAAD/JJREFUaAXtWglwVdd5/s85975FelrBWBtgJ7JpIHHtYk8ypZ2m04kbpyFuxpZYjB27C0ljx9N08ZZNdEnGpB4n3rCdNGTGtQDJBpqtqScTIEnt1IEmtUcETACxaMEC7e/pvbuc0++/T+/pXek9JGKIE5cDku455z//Oeff//9eoovtV0cBQ4L4p0grOlgE7uLQG6TA+r1kDx5teEBqoWw3/i/PrvvFaCFKWdi5+HzhKDB4tP490Zj1d9Eq9ZlMNPOetjYK0T7UuXDHuIjZCCrTntFeBrbJ+DH6XJgmFxkRpscF68EkaSAPPIQUeN4Q3uoiI8L0eNN6FxnxppE+vLEV7v569doMya7OcLi3rIVMmyBW89kbGwIOGIu16XPT+0XWsIPtWho+D4Mt248ztc3xTEXw8lBh+CpaOppqfGXKIo4RE5iMl1iUm/MVCdeOjO78cPfw2m8tqhEZv9x3pLZrnZFn/vhUssTysw6v/GZDWWzIv5Ri9iIiXSXADKPh6tCERI/IV4KGMq45oezavs7WLqcIQtylbr5lWctNxjqwdU13dw6Gifnau+oXai2brbS137O08KN6MXm6Snui+/m1vQcBm2cewx+8sqHWidgLle/X4yRR8v3gLHyuwN4r6UhBPZ6mk52tJwdzexX+beloeJ9lq05SVKUzeuU7unq+U8g8i4HBgLhQeoVU4iY4lWXGNnYUklRK7KJYg5Na0tBANOO1r9658LjOmDVE8l1km5Q7bu1ZtbV+x7ZVfQdKSmThKSefV7Y3zI+n6XZRbn8EG7zTiqoZUAaU0K7WEUv8lLzRxz7070ue/8aNB8cKAVs6ltmSRu5ScflZx/M7Mdeam+9aVDdPGfVPIiJucYz+FkIYqYx4v5WwlTPuf/tPN1ev23nH8DDDt3SQ2m8WrhAWfdwy+gYVF5VCsExMyW/gfY0h49GwMGZ7y7ONj3au7fnfc7k372W1QeIOdNKtYPHDdkwgxMJoVgB5fmbDGSTo43s04k/4e40SjUKbL0USar7v4lh8UEHXu0Z+oLVj4QMddOIHM5HMHGnpeFuVVJmNypZ3QCAgdGbQGDMOSPA80AR+xF1JSktUqYhYjlBwc8xJLQThHwxrxogy0iyT7AGNvoKYe2ISR0LGgfAKKyIE7rESIk0IK5M4+xhGXi+LVOICAR9IiqbroY+PxCpVs5vULvbuBS4EoFOcAFpwgWJC0qXxCvln6RFzdUtn/fpO6ts385alR6yftddfE43Sw7h8WWZEYx8QGQRV0BUBguQbxnn7gEiCTvmO2ayE6RO2aFOWqJkYhroyOJ8SBLDicoWXNg+1bmu8p2NVz648nhIPwmQ+LpVczWroZvRuo/Vz2sgjME++FJb2sU4RfnsyQpZY6jv6VmmLq6Q0/6C9wZcx/Z851OVJy0xUeBleBMHIBAefnFQ+rqhEhvfxJrQGtQ8az2zDPv/lZvxXdtx2aohB1z7XdIUW5pORCqt5YlT3kat3gJ/f86XJcmkSnwXBFUrNh4j8CYRnZbRa/k56WN6zpn3B3VvWvn5qEmzWP5Y3Rp+2JJINn6UZTAC/0yM+RROS7AQGmAHcmAkWU5r6ccGvQZ8HhCU3gFnVTiq7licZjpmJS5IVk9d6GbGxpb3xXqjr94P5Ir9gGmux942Q8riT1C9hm/Xtq3oPFQHNDX1n9XMLd2uXvmnFRZ32rDsxkWdEDojPjv8CMTsfPHcTfhKsLfg54fnmU52rTu7Ir5l8cF2zAuf5A3dcp0mLRztW93xhOsy0fmfrtoWboDl3CCNu9qzIE5ifMyOkl/ZXjvW5hA0DRrA0Q8LZGYX2KWDCV6HkZ4SSbcwEb6KACQUrAmaks8yA5H7+pi1N7y6YDj0aX/+WssU8NnmIPTb3zms+GgIo0tl684m9cJa7WLJhG65p6bgkUQSs+BDuyFzxfHoVznUGE2DqIjhLc6QS2ifoFeO4LxRHNGN0C2jTG61QfJUlNzzSzO50Tk2mBjSYYcjFD5skEI3sMkmQhrwM5Zjge+JpEGpE2vQZaVEVMyGQtRJb5ZkRl++2bbr1ln9rriwGKqWqAB7LR/wDAzfw3j27Qd65NNGd3d9EaVyVCvJmIArUAzvAvBeNcGJVp23EQ2WT/m5UCzGnCBB+f0D7MIW8gRTlibo0WD63Jr0Uwrc0zCYIz2bJHdPsvGCZs0QOmGCoH9K3CZl5Ekz4tFAUaMLZmJDb3rBxR8Oaa3yVenu2F/6tjc88C6RUSFM0Vg+vyPU4ruV/pGEGGcU5tWBxsRUwKDhQgA/Bo9DybNFLIQKNACxLFQGCFc7M9iw9uDIQXYz1uJQa9KEZcNhYxZqR0wQQ8zGoXAb9T4Ggs2rC9E0R/eBiotwju6jUovJi4CPO6eDZPbICl7v89H1/k/rW0HFnotrYcY6YVExQ/dUxBNaTsq7hmLX4kuQ4wxYPoHBbCe05qzkqdnmOtBD7n1RCz9l5FcNTaoxNiAevXWr+jY5b3lw14pffSfoTZjs7aoSDgbNGtBzIppP0++HIH4KSRkSU7gVrKtl0TbJobjsCnJmLCGoCIeK3t60+cXhuC399oNjAeNZkDnIBjyWrF0Q2KkVn2DBw7sBmZLTP68+M6o2pYV2OaPzvYcIr0YcJO4eTMD6k58CbhFn6OtYeX/fM4vpzwPCmg+IKbDMNqg38eH4aMIG5M/DJ/9ky9IqT0vcnT/s9w8dcGjricbL2zwjdahHG/q12TIWL6Iidd+B/5mIAsE2WCchYPXoazD0GXLc4EWS5v2FtzmHPOdxLZ2tmoRVBrenVjrHNTddFTxhHXj94yDmcqIs32VF5F5LQBOcV7Lg5kuIkKChAcejHK2fwNTuW0wTENE/5Lh2JlIm7Efb65KBadh5bzsGzFlsessrz3OYic3PdcraAIsdw7+RPMt+1qyfa4JQXnT7gfCLZ7yWgGUFugTzDcPbMuQY0hGCuKBeWhg4ypQnjWusnQfrDVsR8DKHllQja01Dzs+YH7Jz4TRaXlUN4S3YYXRYUdbI5rimJbNrE5FFhCCQkctpkia70cYpJWM5Op5owVjDOzIVAz6BDjhF8H1G7uOra8nnqLhTEyvPhK5ajsho4cK49sYZMJjpTu/AT4DgXgXSOQ+6fRHJ4BMWhOxExvRMBAMflZ2+Yl5xEKqrrrV8evkXJleJyxouSQqZ/3EuXBDvHifjEKQd4k/CNHJzUSFsXTUSno3V9r46UiTEv2AAUNqnNMPykCGioxWVtbWFm5Bnx3g1AQWJNvFaWlddZiPgFDXc7NNbjBQSOV0uKYIwZxJEQm6l8w3mDTJxMEps9CV9yxLLlJwCzlLN1Nh2zNoAEWibojpGq082zwbdua1iBa/0RCwao9bMXbvvl3n8U2+fpj5ILs3fI4TqTod8my/ogl8SLwebG1j+13IYArwPz6gPznZuY/Ktl5c9BF06MIdn6ozc9v+hthSCBj+CBsV4Szri5LF6DyisIN3TUNWdec0SkXFL15TbKHopcFPJYRFDeCMwUEx8HzjFhHEzYRL45Asf8SXD+SmZCmO+FW8985vAY6K7Tyn+qZWvjTpSljxjHD9QYiaRhJ4dfllL6HUaK21SELsUaFLT0IzOxvbERqeWLRpnv4/4fyIz6f2VMU9NN7bRLkR7JYwZrsDuOLGqHxOvvV0LcAEJHA2LngbIPKNOPQ3i+YrT6orTl1cb1n0FlejtszQHq7PlunhGE6nlqntfrpJA6N5KJ1yoRn6+ost4KMuzkgB9EToHzRlyN3CBgUqwGFII5wouRJ8Dsw9KS94Bobw+YwIqAY861seLwewJw9/cRpV2FteMiBkUtaIHTM7LKioqEC7+FQvb91ZfX7yG8Ksi1ZLknIEwRrgxgMX+6YqgtO8tvFXHiKCeZ0MCSRTnOedZ0ND6UGfObolXyKi9pbocN/CDELvxGEBqJPaLwfpewYHKlAgVM8iEw6WE/dPvhan9TzahcAovyF3jp9bsomy/DG75x9+bGH+YNzL59kGXHdGaGPGJNSIHwKOnS+CmPBg87pnt3kkZPukFlFlIuYKIMawsaHDM9Dot4CJe7D1n5FBOyd5/b78kjOxN6u5/WexGllWOfRixuCv0YakRyqFAj+wEIuQbvaZ54+tp9bniTKqiRfIWDDRDoVTA0z8y0RynkNfv9DJsf0xVeF+4taenZDS3/S+RQX4VgnMY9F0BYgvMARxM/QyOajGsuQeXgGNKARyGAr2ZGfB9e+3CsphdsmWov4PUxgp77UJ24G5q8V2eoDIl0A1g5MKURMCLJSGpXZKzsC5D6+4EssNmyKqhiCTYbqdMelS9QhDdWgGbJhUPT5nHfEa8hOvocTNYijqqmrj11iFmfwAj2P56jt0IkfuxKaxFKCwltTF5Y2EiDGEZGvTOOUX2D85v7d//hbryaCTeYAXdNe8MmV9o/8jwTeq+x/LXewQNLGj6rlfqaFxH7wyvDvTZE7UQnf4L38YfA1C+D2AtAsEhQhEDdh7CzlB5iBYWI0EAlo/3a85rsiE5EMqmfP7tumscG+h0f6Tlz+67LvpIecXaifARmaqvMlvtDqsPHWPR7VTUVDfq+eKW6J4NK7PylUapebNNAF0QIBUFWaTZHFQ12EmbiMTjkg3h18Y9Qy0b+iJAZxjCCzQJsFT/b5UEe8lNIy52drT0vha+Ld8PtDe+zE+opmKTLMynz4edXndjJMLiq2LAB7C5obfzcdi6ep2DxG38UbW3h8wTHOQ/nKdSI4JjHfzQytOzPKx+cGPINqrH3ZlCHYhPFIRm/LxiHVoz3+ylI2uOIjPbjpc6DiTqrznNYQVCXgYNmG2khrofp4G8e0ALbgC8NwbpZGpfBOULpbCUfOscmJW9WZln6q5jmz2YuyHnyal94i65/HR0cOyUfhB3dgBCOBg46MEs+cQkkedpLOWP+w70vT3QNd2e+iJyijv0JbLrhjNqKIMyF78BnIAIONasdQA42cW4eDq4LN/1//jxDI3L0YM1oWE4b4/HEHmTWN7pj1OAm/W43Rd/QCdUlku7fIMdYgGgpiKqGj7riEpgxvFyEDEuyYL5QTAxKIpzE4Luh40b7/Tn8F/+GKVCSEQzWu49S1Da+p/m/6cVhCHcsQfrYDwkRyoRuui72PcROH0MJfT6HiTY+NghsE9YheghyCxuaARMVlMFhsl7YfkvfsfD22R74BjsGbIyiwDkXg32rjp2VEcGl4Yh+QRQKw3j8ZCr90tLFlX8dKacv40ODeRUNFlUg5+DPajiT5motFwoRt6dA3c8L6TxbkoiudCyOzpgRnvG2rUFMVhL4rTkxOyNK3buLnP0to1uu7q58ebTfuzE1qq9AqGkbT2hlk45WGZ0Z8vujleI/IutP7e1EjlMKlYhWvehOjD6O/KDMZNwfTzrpUuBvyfHzJXhZPNPjieKjxQkZVDcwVZB8FQd8a47+H64dgP90UV6FAAAAAElFTkSuQmCC;fontFamily=Tahoma;" vertex="1" parent="1">
          <mxGeometry x="590" y="317.5" width="66.22" height="25" as="geometry" />
        </mxCell>
        <mxCell id="qn5EBnbspL_nzVi48WmT-9" value="Any component model" style="text;html=1;strokeColor=none;fillColor=none;align=center;verticalAlign=middle;whiteSpace=wrap;rounded=0;fontColor=#FF8000;fontFamily=Tahoma;" vertex="1" parent="1">
          <mxGeometry x="546.5" y="490" width="140" height="30" as="geometry" />
        </mxCell>
        <mxCell id="qn5EBnbspL_nzVi48WmT-14" value="" style="curved=1;endArrow=classic;html=1;rounded=0;fillColor=#ffe6cc;strokeColor=#d79b00;fontFamily=Tahoma;" edge="1" parent="1">
          <mxGeometry width="50" height="50" relative="1" as="geometry">
            <mxPoint x="430" y="452.5" as="sourcePoint" />
            <mxPoint x="430" y="342.5" as="targetPoint" />
            <Array as="points">
              <mxPoint x="390" y="442.5" />
              <mxPoint x="350" y="412.5" />
              <mxPoint x="350" y="362.5" />
              <mxPoint x="390" y="342.5" />
            </Array>
          </mxGeometry>
        </mxCell>
        <mxCell id="qn5EBnbspL_nzVi48WmT-15" value="" style="curved=1;endArrow=classic;html=1;rounded=0;fillColor=#dae8fc;strokeColor=#6c8ebf;fontFamily=Tahoma;" edge="1" parent="1">
          <mxGeometry width="50" height="50" relative="1" as="geometry">
            <mxPoint x="680" y="342.5" as="sourcePoint" />
            <mxPoint x="680" y="452.5" as="targetPoint" />
            <Array as="points">
              <mxPoint x="720" y="352.5" />
              <mxPoint x="760" y="382.5" />
              <mxPoint x="760" y="432.5" />
              <mxPoint x="720" y="452.5" />
            </Array>
          </mxGeometry>
        </mxCell>
        <mxCell id="C4aQHjFXi1T4Z2KMxgj--1" value="" style="strokeWidth=2;html=1;shape=mxgraph.flowchart.annotation_2;align=left;labelPosition=right;pointerEvents=1;rotation=-90;fillColor=#ffe6cc;strokeColor=#d79b00;fontFamily=Tahoma;" vertex="1" parent="1">
          <mxGeometry x="610" y="423.5" width="15" height="117.5" as="geometry" />
        </mxCell>
      </root>
    </mxGraphModel>
  </diagram>
  <diagram id="QrhIbkpj3Hk4IHIOMXZp" name="islands-architecture">
    <mxGraphModel dx="1037" dy="581" grid="1" gridSize="10" guides="1" tooltips="1" connect="1" arrows="1" fold="1" page="1" pageScale="1" pageWidth="1169" pageHeight="1654" math="0" shadow="0">
      <root>
        <mxCell id="0" />
        <mxCell id="1" parent="0" />
        <mxCell id="_-Amb6o111NHxZ7bIHb--1" value="" style="rounded=1;whiteSpace=wrap;html=1;strokeColor=none;fillColor=#FFFFFF;opacity=30;arcSize=8;fontFamily=Tahoma;" vertex="1" parent="1">
          <mxGeometry x="120" y="80" width="520" height="210" as="geometry" />
        </mxCell>
        <mxCell id="gO8vmvnZ3ssyblGrh4Wt-3" value="" style="rounded=0;whiteSpace=wrap;html=1;strokeColor=none;fillColor=#E6E6E6;" vertex="1" parent="1">
          <mxGeometry x="491" y="124" width="128" height="95" as="geometry" />
        </mxCell>
        <mxCell id="gO8vmvnZ3ssyblGrh4Wt-2" value="" style="rounded=0;whiteSpace=wrap;html=1;strokeColor=none;fillColor=#E6E6E6;" vertex="1" parent="1">
          <mxGeometry x="316" y="124" width="128" height="95" as="geometry" />
        </mxCell>
        <mxCell id="gO8vmvnZ3ssyblGrh4Wt-1" value="" style="rounded=0;whiteSpace=wrap;html=1;strokeColor=none;fillColor=#E6E6E6;" vertex="1" parent="1">
          <mxGeometry x="141" y="124" width="128" height="95" as="geometry" />
        </mxCell>
        <mxCell id="MlrRE528-zO6Ffes-27y-1" value="Page" style="swimlane;whiteSpace=wrap;html=1;fillColor=#dae8fc;strokeColor=#6c8ebf;fontFamily=Tahoma;comic=0;" vertex="1" parent="1">
          <mxGeometry x="140" y="100" width="130" height="120" as="geometry" />
        </mxCell>
        <mxCell id="n2HCzZrS8lU4j17K6UoX-1" value="" style="rounded=1;whiteSpace=wrap;html=1;fillColor=#ffe6cc;strokeColor=#d79b00;fontFamily=Tahoma;" vertex="1" parent="MlrRE528-zO6Ffes-27y-1">
          <mxGeometry x="10" y="40" width="40" height="20" as="geometry" />
        </mxCell>
        <mxCell id="MlrRE528-zO6Ffes-27y-2" value="&lt;b&gt;Server&lt;br&gt;&lt;br&gt;&lt;/b&gt;" style="text;html=1;strokeColor=none;fillColor=none;align=center;verticalAlign=middle;whiteSpace=wrap;rounded=0;fontSize=13;fontColor=#FF8000;fontFamily=Tahoma;" vertex="1" parent="1">
          <mxGeometry x="140" y="240" width="130" height="30" as="geometry" />
        </mxCell>
        <mxCell id="n2HCzZrS8lU4j17K6UoX-2" value="" style="rounded=1;whiteSpace=wrap;html=1;fillColor=#d5e8d4;strokeColor=#82b366;fontFamily=Tahoma;" vertex="1" parent="1">
          <mxGeometry x="150" y="180" width="40" height="20" as="geometry" />
        </mxCell>
        <mxCell id="n2HCzZrS8lU4j17K6UoX-3" value="" style="rounded=1;whiteSpace=wrap;html=1;fillColor=#fff2cc;strokeColor=#d6b656;fontFamily=Tahoma;" vertex="1" parent="1">
          <mxGeometry x="210" y="140" width="40" height="20" as="geometry" />
        </mxCell>
        <mxCell id="n2HCzZrS8lU4j17K6UoX-5" value="Page" style="swimlane;whiteSpace=wrap;html=1;fillColor=#dae8fc;strokeColor=#6c8ebf;fontFamily=Tahoma;" vertex="1" parent="1">
          <mxGeometry x="315" y="100" width="130" height="120" as="geometry" />
        </mxCell>
        <mxCell id="n2HCzZrS8lU4j17K6UoX-6" value="" style="rounded=1;whiteSpace=wrap;html=1;fillColor=#f5f5f5;strokeColor=#666666;fontFamily=Tahoma;fontColor=#333333;" vertex="1" parent="n2HCzZrS8lU4j17K6UoX-5">
          <mxGeometry x="10" y="40" width="40" height="20" as="geometry" />
        </mxCell>
        <mxCell id="n2HCzZrS8lU4j17K6UoX-7" value="&lt;b&gt;Browser&lt;/b&gt;&lt;br style=&quot;font-size: 13px;&quot;&gt;(initial rendering)" style="text;html=1;strokeColor=none;fillColor=none;align=center;verticalAlign=middle;whiteSpace=wrap;rounded=0;fontSize=13;fontColor=#FF8000;fontFamily=Tahoma;" vertex="1" parent="1">
          <mxGeometry x="315" y="240" width="130" height="30" as="geometry" />
        </mxCell>
        <mxCell id="n2HCzZrS8lU4j17K6UoX-8" value="" style="rounded=1;whiteSpace=wrap;html=1;fillColor=#f5f5f5;strokeColor=#666666;fontFamily=Tahoma;fontColor=#333333;" vertex="1" parent="1">
          <mxGeometry x="325" y="180" width="40" height="20" as="geometry" />
        </mxCell>
        <mxCell id="n2HCzZrS8lU4j17K6UoX-9" value="" style="rounded=1;whiteSpace=wrap;html=1;fillColor=#f5f5f5;strokeColor=#666666;fontFamily=Tahoma;fontColor=#333333;" vertex="1" parent="1">
          <mxGeometry x="385" y="140" width="40" height="20" as="geometry" />
        </mxCell>
        <mxCell id="n2HCzZrS8lU4j17K6UoX-11" value="Page" style="swimlane;whiteSpace=wrap;html=1;fillColor=#dae8fc;strokeColor=#6c8ebf;fontFamily=Tahoma;" vertex="1" parent="1">
          <mxGeometry x="490" y="100" width="130" height="120" as="geometry" />
        </mxCell>
        <mxCell id="n2HCzZrS8lU4j17K6UoX-12" value="" style="rounded=1;whiteSpace=wrap;html=1;fillColor=#ffe6cc;strokeColor=#d79b00;fontFamily=Tahoma;" vertex="1" parent="n2HCzZrS8lU4j17K6UoX-11">
          <mxGeometry x="10" y="40" width="40" height="20" as="geometry" />
        </mxCell>
        <mxCell id="n2HCzZrS8lU4j17K6UoX-13" value="&lt;b&gt;Browser&lt;/b&gt;&lt;br style=&quot;font-size: 13px;&quot;&gt;(hydrate and render)" style="text;html=1;strokeColor=none;fillColor=none;align=center;verticalAlign=middle;whiteSpace=wrap;rounded=0;fontSize=13;fontColor=#FF8000;fontFamily=Tahoma;" vertex="1" parent="1">
          <mxGeometry x="490" y="240" width="130" height="30" as="geometry" />
        </mxCell>
        <mxCell id="n2HCzZrS8lU4j17K6UoX-14" value="" style="rounded=1;whiteSpace=wrap;html=1;fillColor=#f5f5f5;strokeColor=#666666;fontFamily=Tahoma;fontColor=#333333;" vertex="1" parent="1">
          <mxGeometry x="500" y="180" width="40" height="20" as="geometry" />
        </mxCell>
        <mxCell id="n2HCzZrS8lU4j17K6UoX-15" value="" style="rounded=1;whiteSpace=wrap;html=1;fillColor=#f5f5f5;strokeColor=#666666;fontFamily=Tahoma;fontColor=#333333;" vertex="1" parent="1">
          <mxGeometry x="560" y="140" width="40" height="20" as="geometry" />
        </mxCell>
        <mxCell id="n2HCzZrS8lU4j17K6UoX-16" value="" style="rounded=1;whiteSpace=wrap;html=1;fillColor=#e1d5e7;strokeColor=#9673a6;fontFamily=Tahoma;" vertex="1" parent="1">
          <mxGeometry x="560" y="180" width="40" height="20" as="geometry" />
        </mxCell>
      </root>
    </mxGraphModel>
  </diagram>
  <diagram id="KJIg1bS3_iHe6UhzfpqY" name="pi-component">
    <mxGraphModel dx="2074" dy="1161" grid="1" gridSize="10" guides="1" tooltips="1" connect="1" arrows="1" fold="1" page="1" pageScale="1" pageWidth="1169" pageHeight="1654" math="0" shadow="0">
      <root>
        <mxCell id="0" />
        <mxCell id="1" parent="0" />
        <mxCell id="Fuw76S1NoFEW587034u8-1" value="" style="rounded=1;whiteSpace=wrap;html=1;strokeColor=none;fillColor=#FFFFFF;opacity=30;arcSize=8;fontFamily=Tahoma;" vertex="1" parent="1">
          <mxGeometry x="120" y="80" width="520" height="240" as="geometry" />
        </mxCell>
        <mxCell id="u-yDvpw6W_UNhT6xqwF0-1" value="pi-component" style="swimlane;whiteSpace=wrap;html=1;fillColor=#dae8fc;strokeColor=#6c8ebf;fontFamily=Tahoma;" vertex="1" parent="1">
          <mxGeometry x="170" y="130" width="200" height="140" as="geometry" />
        </mxCell>
        <mxCell id="u-yDvpw6W_UNhT6xqwF0-10" value="" style="endArrow=classic;html=1;rounded=0;entryX=0;entryY=0.5;entryDx=0;entryDy=0;fontFamily=Tahoma;fillColor=#dae8fc;strokeColor=#6c8ebf;" edge="1" parent="u-yDvpw6W_UNhT6xqwF0-1" target="u-yDvpw6W_UNhT6xqwF0-4">
          <mxGeometry width="50" height="50" relative="1" as="geometry">
            <mxPoint x="100" y="90" as="sourcePoint" />
            <mxPoint x="150" y="40" as="targetPoint" />
          </mxGeometry>
        </mxCell>
        <mxCell id="u-yDvpw6W_UNhT6xqwF0-2" value="MF 1" style="rounded=0;whiteSpace=wrap;html=1;fillColor=#ffe6cc;strokeColor=#d79b00;fontFamily=Tahoma;fontSize=16;" vertex="1" parent="1">
          <mxGeometry x="465" y="90" width="120" height="60" as="geometry" />
        </mxCell>
        <mxCell id="u-yDvpw6W_UNhT6xqwF0-3" value="MF 2" style="rounded=0;whiteSpace=wrap;html=1;fillColor=#d5e8d4;strokeColor=#82b366;fontFamily=Tahoma;fontSize=16;" vertex="1" parent="1">
          <mxGeometry x="465" y="210" width="120" height="60" as="geometry" />
        </mxCell>
        <mxCell id="u-yDvpw6W_UNhT6xqwF0-4" value="" style="rounded=1;whiteSpace=wrap;html=1;fillColor=#ffe6cc;strokeColor=#d79b00;fontFamily=Tahoma;" vertex="1" parent="1">
          <mxGeometry x="452.75" y="170" width="40" height="20" as="geometry" />
        </mxCell>
        <mxCell id="u-yDvpw6W_UNhT6xqwF0-5" value="" style="rounded=1;whiteSpace=wrap;html=1;fillColor=#ffe6cc;strokeColor=#d79b00;fontFamily=Tahoma;" vertex="1" parent="1">
          <mxGeometry x="502.75" y="170" width="40" height="20" as="geometry" />
        </mxCell>
        <mxCell id="u-yDvpw6W_UNhT6xqwF0-6" value="" style="rounded=1;whiteSpace=wrap;html=1;fillColor=#ffe6cc;strokeColor=#d79b00;fontFamily=Tahoma;" vertex="1" parent="1">
          <mxGeometry x="557.25" y="170" width="40" height="20" as="geometry" />
        </mxCell>
        <mxCell id="u-yDvpw6W_UNhT6xqwF0-7" value="" style="rounded=1;whiteSpace=wrap;html=1;fillColor=#d5e8d4;strokeColor=#82b366;fontFamily=Tahoma;" vertex="1" parent="1">
          <mxGeometry x="450.5" y="290" width="40" height="20" as="geometry" />
        </mxCell>
        <mxCell id="u-yDvpw6W_UNhT6xqwF0-8" value="" style="rounded=1;whiteSpace=wrap;html=1;fillColor=#d5e8d4;strokeColor=#82b366;fontFamily=Tahoma;" vertex="1" parent="1">
          <mxGeometry x="500.5" y="290" width="40" height="20" as="geometry" />
        </mxCell>
        <mxCell id="u-yDvpw6W_UNhT6xqwF0-9" value="" style="rounded=1;whiteSpace=wrap;html=1;fillColor=#d5e8d4;strokeColor=#82b366;fontFamily=Tahoma;" vertex="1" parent="1">
          <mxGeometry x="555" y="290" width="40" height="20" as="geometry" />
        </mxCell>
        <mxCell id="zfnZegWfHg_x5fxtwSAb-1" value="" style="endArrow=none;dashed=1;html=1;rounded=0;entryX=0;entryY=0.5;entryDx=0;entryDy=0;fontFamily=Tahoma;fillColor=#dae8fc;strokeColor=#6c8ebf;" edge="1" parent="1" target="u-yDvpw6W_UNhT6xqwF0-2">
          <mxGeometry width="50" height="50" relative="1" as="geometry">
            <mxPoint x="370" y="200" as="sourcePoint" />
            <mxPoint x="690" y="190" as="targetPoint" />
          </mxGeometry>
        </mxCell>
      </root>
    </mxGraphModel>
  </diagram>
  <diagram id="51aIdO1O9tL87HWJY8l4" name="pi-slot">
    <mxGraphModel dx="2074" dy="1161" grid="1" gridSize="10" guides="1" tooltips="1" connect="1" arrows="1" fold="1" page="1" pageScale="1" pageWidth="1169" pageHeight="1654" math="0" shadow="0">
      <root>
        <mxCell id="0" />
        <mxCell id="1" parent="0" />
        <mxCell id="o2hAfFy674cJPwskM_dP-1" value="" style="rounded=1;whiteSpace=wrap;html=1;strokeColor=none;fillColor=#FFFFFF;opacity=30;arcSize=8;fontFamily=Tahoma;" vertex="1" parent="1">
          <mxGeometry x="120" y="80" width="520" height="240" as="geometry" />
        </mxCell>
        <mxCell id="o2hAfFy674cJPwskM_dP-2" value="pi-slot" style="swimlane;whiteSpace=wrap;html=1;fillColor=#dae8fc;strokeColor=#6c8ebf;fontFamily=Tahoma;" vertex="1" parent="1">
          <mxGeometry x="170" y="130" width="200" height="140" as="geometry" />
        </mxCell>
        <mxCell id="o2hAfFy674cJPwskM_dP-3" value="" style="endArrow=none;html=1;rounded=0;entryX=0;entryY=0.5;entryDx=0;entryDy=0;endFill=0;startArrow=classicThin;startFill=1;dashed=1;fontFamily=Tahoma;fillColor=#dae8fc;strokeColor=#6c8ebf;" edge="1" parent="o2hAfFy674cJPwskM_dP-2" target="o2hAfFy674cJPwskM_dP-6">
          <mxGeometry width="50" height="50" relative="1" as="geometry">
            <mxPoint x="100" y="90" as="sourcePoint" />
            <mxPoint x="150" y="40" as="targetPoint" />
          </mxGeometry>
        </mxCell>
        <mxCell id="o2hAfFy674cJPwskM_dP-4" value="MF 1" style="rounded=0;whiteSpace=wrap;html=1;fillColor=#ffe6cc;strokeColor=#d79b00;fontSize=16;fontFamily=Tahoma;" vertex="1" parent="1">
          <mxGeometry x="465" y="90" width="120" height="60" as="geometry" />
        </mxCell>
        <mxCell id="o2hAfFy674cJPwskM_dP-5" value="MF 2" style="rounded=0;whiteSpace=wrap;html=1;fillColor=#d5e8d4;strokeColor=#82b366;fontSize=16;fontFamily=Tahoma;" vertex="1" parent="1">
          <mxGeometry x="465" y="210" width="120" height="60" as="geometry" />
        </mxCell>
        <mxCell id="o2hAfFy674cJPwskM_dP-6" value="" style="rounded=1;whiteSpace=wrap;html=1;fillColor=#ffe6cc;strokeColor=#d79b00;fontFamily=Tahoma;" vertex="1" parent="1">
          <mxGeometry x="452.75" y="170" width="40" height="20" as="geometry" />
        </mxCell>
        <mxCell id="o2hAfFy674cJPwskM_dP-7" value="" style="rounded=1;whiteSpace=wrap;html=1;fillColor=#ffe6cc;strokeColor=#d79b00;fontFamily=Tahoma;" vertex="1" parent="1">
          <mxGeometry x="502.75" y="170" width="40" height="20" as="geometry" />
        </mxCell>
        <mxCell id="o2hAfFy674cJPwskM_dP-8" value="" style="rounded=1;whiteSpace=wrap;html=1;fillColor=#ffe6cc;strokeColor=#d79b00;fontFamily=Tahoma;" vertex="1" parent="1">
          <mxGeometry x="557.25" y="170" width="40" height="20" as="geometry" />
        </mxCell>
        <mxCell id="o2hAfFy674cJPwskM_dP-9" value="" style="rounded=1;whiteSpace=wrap;html=1;fillColor=#d5e8d4;strokeColor=#82b366;fontFamily=Tahoma;" vertex="1" parent="1">
          <mxGeometry x="450.5" y="290" width="40" height="20" as="geometry" />
        </mxCell>
        <mxCell id="o2hAfFy674cJPwskM_dP-10" value="" style="rounded=1;whiteSpace=wrap;html=1;fillColor=#d5e8d4;strokeColor=#82b366;fontFamily=Tahoma;" vertex="1" parent="1">
          <mxGeometry x="500.5" y="290" width="40" height="20" as="geometry" />
        </mxCell>
        <mxCell id="o2hAfFy674cJPwskM_dP-11" value="" style="rounded=1;whiteSpace=wrap;html=1;fillColor=#d5e8d4;strokeColor=#82b366;fontFamily=Tahoma;" vertex="1" parent="1">
          <mxGeometry x="555" y="290" width="40" height="20" as="geometry" />
        </mxCell>
        <mxCell id="o2hAfFy674cJPwskM_dP-12" value="" style="endArrow=none;html=1;rounded=0;entryX=0;entryY=0.5;entryDx=0;entryDy=0;endFill=0;startArrow=classicThin;startFill=1;dashed=1;fontFamily=Tahoma;fillColor=#dae8fc;strokeColor=#6c8ebf;" edge="1" parent="1" target="o2hAfFy674cJPwskM_dP-10">
          <mxGeometry width="50" height="50" relative="1" as="geometry">
            <mxPoint x="270" y="220" as="sourcePoint" />
            <mxPoint x="463" y="190" as="targetPoint" />
          </mxGeometry>
        </mxCell>
      </root>
    </mxGraphModel>
  </diagram>
  <diagram name="pi-part" id="DjTahAS5VqNoyUseh9Ik">
    <mxGraphModel dx="2074" dy="1161" grid="1" gridSize="10" guides="1" tooltips="1" connect="1" arrows="1" fold="1" page="1" pageScale="1" pageWidth="1169" pageHeight="1654" math="0" shadow="0">
      <root>
        <mxCell id="rqWucj4FXVkHQ_I1h4c8-0" />
        <mxCell id="rqWucj4FXVkHQ_I1h4c8-1" parent="rqWucj4FXVkHQ_I1h4c8-0" />
        <mxCell id="rqWucj4FXVkHQ_I1h4c8-2" value="" style="rounded=1;whiteSpace=wrap;html=1;strokeColor=none;fillColor=#FFFFFF;opacity=30;arcSize=8;fontFamily=Tahoma;" vertex="1" parent="rqWucj4FXVkHQ_I1h4c8-1">
          <mxGeometry x="120" y="80" width="520" height="240" as="geometry" />
        </mxCell>
        <mxCell id="lYGjIKVHRhK5MUpFjJ6a-0" style="edgeStyle=orthogonalEdgeStyle;rounded=0;orthogonalLoop=1;jettySize=auto;html=1;exitX=1;exitY=0.5;exitDx=0;exitDy=0;entryX=0;entryY=0.5;entryDx=0;entryDy=0;startArrow=classic;startFill=1;" edge="1" parent="rqWucj4FXVkHQ_I1h4c8-1" source="rqWucj4FXVkHQ_I1h4c8-3" target="rqWucj4FXVkHQ_I1h4c8-5">
          <mxGeometry relative="1" as="geometry" />
        </mxCell>
        <mxCell id="rqWucj4FXVkHQ_I1h4c8-3" value="pi-part" style="swimlane;whiteSpace=wrap;html=1;fillColor=#dae8fc;strokeColor=#6c8ebf;fontFamily=Tahoma;" vertex="1" parent="rqWucj4FXVkHQ_I1h4c8-1">
          <mxGeometry x="170" y="130" width="200" height="140" as="geometry" />
        </mxCell>
        <mxCell id="rqWucj4FXVkHQ_I1h4c8-5" value="Service" style="rounded=0;whiteSpace=wrap;html=1;fillColor=#f5f5f5;strokeColor=#666666;fontSize=16;fontFamily=Tahoma;fontColor=#333333;" vertex="1" parent="rqWucj4FXVkHQ_I1h4c8-1">
          <mxGeometry x="465" y="170" width="120" height="60" as="geometry" />
        </mxCell>
      </root>
    </mxGraphModel>
  </diagram>
</mxfile>
